<?xml version="1.0" encoding="UTF-8" standalone="no"?>
<!-- Created with Inkscape (http://www.inkscape.org/) -->

<svg
   xmlns:dc="http://purl.org/dc/elements/1.1/"
   xmlns:cc="http://creativecommons.org/ns#"
   xmlns:rdf="http://www.w3.org/1999/02/22-rdf-syntax-ns#"
   xmlns:svg="http://www.w3.org/2000/svg"
   xmlns="http://www.w3.org/2000/svg"
   xmlns:xlink="http://www.w3.org/1999/xlink"
   xmlns:sodipodi="http://sodipodi.sourceforge.net/DTD/sodipodi-0.dtd"
   xmlns:inkscape="http://www.inkscape.org/namespaces/inkscape"
   width="320"
   height="48"
   id="svg2"
   version="1.1"
   inkscape:version="0.48.3.1 r9886"
   sodipodi:docname="BodyStats_logo_01.svg">
  <defs
     id="defs4">
    <linearGradient
       id="linearGradient3782">
      <stop
         style="stop-color:#7f007f;stop-opacity:1;"
         offset="0"
         id="stop3784" />
      <stop
         id="stop3790"
         offset="0.25"
         style="stop-color:#0000ff;stop-opacity:1;" />
      <stop
         style="stop-color:#00ff00;stop-opacity:1;"
         offset="0.5"
         id="stop3792" />
      <stop
         id="stop3794"
         offset="0.75"
         style="stop-color:#ffff00;stop-opacity:1;" />
      <stop
         style="stop-color:#ff0000;stop-opacity:1;"
         offset="1"
         id="stop3786" />
    </linearGradient>
    <linearGradient
       inkscape:collect="always"
       xlink:href="#linearGradient3782"
       id="linearGradient3788"
       x1="10.4"
       y1="1028.7022"
       x2="199.78438"
       y2="1028.7022"
       gradientUnits="userSpaceOnUse" />
    <linearGradient
       inkscape:collect="always"
       xlink:href="#linearGradient3782"
       id="linearGradient4800"
       gradientUnits="userSpaceOnUse"
       x1="10.4"
       y1="1028.7022"
       x2="199.78438"
       y2="1028.7022"
       gradientTransform="matrix(1.1211673,0,0,1.1211673,3.6983051,-382.25223)" />
  </defs>
  <sodipodi:namedview
     id="base"
     pagecolor="#ffffff"
     bordercolor="#666666"
     borderopacity="1.0"
     inkscape:pageopacity="0.0"
     inkscape:pageshadow="2"
     inkscape:zoom="1.979899"
     inkscape:cx="150.60446"
     inkscape:cy="9.6856576"
     inkscape:document-units="px"
     inkscape:current-layer="layer1"
     showgrid="true"
     gridtolerance="10"
     inkscape:window-width="1366"
     inkscape:window-height="713"
     inkscape:window-x="0"
     inkscape:window-y="-1"
     inkscape:window-maximized="1">
    <inkscape:grid
       type="xygrid"
       id="grid2985"
       units="px"
       empspacing="5"
       visible="true"
       enabled="true"
       snapvisiblegridlinesonly="true"
       spacingx="10px"
       spacingy="3px" />
  </sodipodi:namedview>
  <metadata
     id="metadata7">
    <rdf:RDF>
      <cc:Work
         rdf:about="">
        <dc:format>image/svg+xml</dc:format>
        <dc:type
           rdf:resource="http://purl.org/dc/dcmitype/StillImage" />
        <dc:title></dc:title>
      </cc:Work>
    </rdf:RDF>
  </metadata>
  <g
     inkscape:groupmode="layer"
     id="layer3"
     inkscape:label="FillLayer">
    <rect
       style="fill:#000020;fill-opacity:1;stroke:none"
       id="rect4807"
       width="320"
       height="48"
       x="0"
       y="0" />
  </g>
  <g
     inkscape:label="Layer 1"
     inkscape:groupmode="layer"
     id="layer1"
     transform="translate(0,-1004.3622)">
    <text
       xml:space="preserve"
       style="font-size:44.84669494999999984px;font-style:normal;font-variant:normal;font-weight:normal;font-stretch:normal;line-height:125%;letter-spacing:0px;word-spacing:0px;fill:url(#linearGradient4800);fill-opacity:1;stroke:#ffffff;stroke-width:1.12116729999999998;stroke-opacity:0.49803922;font-family:Chintzy CPU BRK;-inkscape-font-specification:Chintzy CPU BRK"
       x="14.909977"
       y="786.41016"
       id="text2991"
       sodipodi:linespacing="125%"
       transform="scale(0.74958045,1.3340796)"><tspan
         sodipodi:role="line"
         id="tspan2993"
         x="14.909977"
         y="786.41016"
         style="fill:url(#linearGradient4800);fill-opacity:1;stroke:#ffffff;stroke-width:1.12116729999999998;stroke-opacity:0.49803922">BodyStats</tspan></text>
  </g>
  <g
     inkscape:groupmode="layer"
     id="layer2"
     inkscape:label="BodyLayer">
    <g
       id="g4714"
       transform="matrix(0,-0.17112992,0.17112992,0,236.02087,52.150756)">
      <g
         id="g3866"
         transform="translate(20,-323.96197)">
        <path
           id="path3868"
           d="m 253.338,398.478 c -0.592,1.74 -2.619,3.309 -3.345,5.271 -1.638,4.426 -1.708,9.225 -2.65,13.805 -1.771,8.613 -3.923,17.162 -5.433,25.832 -1.442,8.281 -2.792,16.58 -4.436,24.824 -1.254,6.295 -3.248,12.178 -4.563,18.484 -1.15,5.516 -2.416,10.943 -3.666,16.424 -1.198,5.252 -1.812,10.672 -3.548,15.713 -1.957,5.678 -3.2,11.689 -4.231,17.598 -0.939,5.381 -1.103,11.053 -3.031,15.908 -1.524,3.836 -0.502,7.727 -0.516,11.719 -0.011,3.32 0.24,6.641 0.407,9.963 0.404,8.041 1.238,16.24 2.259,24.248 0.74,5.799 1.438,11.559 1.659,17.406 0.186,4.912 1.519,9.803 0.1,14.703 -1.096,3.785 -2.617,7.447 -3.425,11.393 -2.186,10.676 -5.792,20.93 -7.575,31.674 -1.554,9.363 -3.341,18.688 -4.83,28.061 -1.26,7.93 -2.326,16.139 -2.946,24.139 -0.102,1.307 -0.244,3.191 0.418,4.318 0.645,1.1 2.676,2.396 3.617,3.334 1.201,1.195 2.324,2.609 3.666,3.674 2.263,1.795 4.474,2.496 6.983,3.66 1.636,0.76 3.226,1.545 4.667,2.73 0.962,0.793 3.75,2.588 4.275,3.668 3.317,6.828 -11.979,4.006 -14.526,4.008 -7.16,0.01 -14.545,-0.039 -21.74,-0.332 -3.676,-0.15 -7.435,-0.369 -11.099,-0.594 -2.483,-0.152 -7.099,0.785 -9.251,-0.473 -4.558,-2.668 1.067,-11.092 1.042,-14.934 -0.022,-3.418 -0.456,-6.768 -0.025,-10.324 0.409,-3.385 1.301,-5.555 0.649,-8.938 -1.025,-5.314 1.087,-10.357 1.799,-15.553 0.985,-7.195 0.887,-14.014 0.877,-21.186 -0.006,-4.766 -0.11,-9.506 -0.334,-14.26 -0.542,-11.482 -2.374,-22.918 -3.073,-34.334 -0.178,-2.906 -0.44,-5.875 -0.276,-8.816 0.262,-4.701 0.934,-9.568 1.758,-14.184 1.246,-6.979 1.249,-11.514 -1,-18.332 -2.113,-6.408 -3.937,-12.939 -5.815,-19.4 -1.002,-3.447 -1.838,-6.992 -2.626,-10.529 -0.788,3.537 -1.625,7.082 -2.626,10.529 -1.878,6.461 -3.702,12.992 -5.815,19.4 -2.249,6.818 -2.246,11.354 -1,18.332 0.824,4.615 1.496,9.482 1.758,14.184 0.164,2.941 -0.099,5.91 -0.276,8.816 -0.699,11.416 -2.532,22.852 -3.073,34.334 -0.224,4.754 -0.329,9.494 -0.334,14.26 -0.01,7.172 -0.108,13.99 0.877,21.186 0.711,5.195 2.824,10.238 1.799,15.553 -0.652,3.383 0.24,5.553 0.649,8.938 0.43,3.557 -0.003,6.906 -0.025,10.324 -0.025,3.842 5.6,12.266 1.042,14.934 -2.152,1.258 -6.768,0.32 -9.251,0.473 -3.665,0.225 -7.423,0.443 -11.099,0.594 -7.195,0.293 -14.58,0.342 -21.74,0.332 -2.548,-0.002 -17.844,2.82 -14.526,-4.008 0.525,-1.08 3.313,-2.875 4.275,-3.668 1.441,-1.186 3.03,-1.971 4.667,-2.73 2.509,-1.164 4.72,-1.865 6.983,-3.66 1.342,-1.064 2.464,-2.479 3.666,-3.674 0.941,-0.938 2.973,-2.234 3.617,-3.334 0.663,-1.127 0.52,-3.012 0.418,-4.318 -0.62,-8 -1.686,-16.209 -2.946,-24.139 -1.489,-9.373 -3.275,-18.697 -4.83,-28.061 -1.783,-10.744 -5.39,-20.998 -7.575,-31.674 -0.808,-3.945 -2.329,-7.607 -3.425,-11.393 -1.419,-4.9 -0.086,-9.791 0.1,-14.703 0.221,-5.848 0.919,-11.607 1.659,-17.406 1.021,-8.008 1.855,-16.207 2.259,-24.248 0.167,-3.322 0.418,-6.643 0.407,-9.963 -0.014,-3.992 1.008,-7.883 -0.516,-11.719 -1.929,-4.855 -2.092,-10.527 -3.031,-15.908 -1.031,-5.908 -2.274,-11.92 -4.231,-17.598 -1.737,-5.041 -2.35,-10.461 -3.548,-15.713 -1.25,-5.48 -2.515,-10.908 -3.666,-16.424 -1.315,-6.307 -3.309,-12.189 -4.563,-18.484 -1.644,-8.244 -2.993,-16.543 -4.436,-24.824 -1.51,-8.67 -3.662,-17.219 -5.433,-25.832 -0.942,-4.58 -1.012,-9.379 -2.65,-13.805 -0.727,-1.963 -2.753,-3.531 -3.345,-5.271 -0.761,-2.236 1.137,-4.623 1.503,-6.777 1.68,-9.902 3.047,-19.908 5.575,-29.651 4.479,-17.267 8.284,-34.757 13.759,-51.764 2.003,-6.222 4.105,-12.418 6.592,-18.437 0.543,-1.314 1.078,-2.981 1.918,-4.157 2.184,-3.055 2.667,-1.818 1.7,-6.071 -0.701,-3.08 -1.207,-6.2 -1.627,-9.329 -0.786,-5.854 -1.232,-11.747 -2.001,-17.602 -0.904,-6.885 -1.368,-13.849 -1.989,-20.747 -0.503,-5.581 -0.084,-11.354 -0.751,-16.881 -3.718,6.881 -4.455,16.885 -5.258,24.705 -0.59,5.741 -1.167,11.552 -1.592,17.26 -0.23,3.087 -0.519,6.236 -0.665,9.333 -0.203,4.326 0.051,8.562 -0.202,12.855 -0.144,2.439 -1.427,4.028 -2.469,6.149 -0.712,1.449 -0.718,3.735 -0.992,5.307 -0.717,4.111 -1.434,8.353 -2.488,12.379 -2.533,9.68 -6.122,19.106 -8.909,28.725 -2.36,8.145 -5.406,17.037 -9.017,24.682 -1.21,2.563 -2.554,5.018 -3.666,7.65 -1.633,3.867 -2.144,8.48 -4.292,11.852 2.241,1.053 1.326,6.297 0.966,8.41 -0.95,5.584 -1.295,11.342 -1.683,16.982 -0.318,4.631 -0.46,9.234 -1.667,13.684 -0.966,3.559 -2.725,6.877 -4.343,10.258 -1.7,3.551 -3.434,6.945 -5.389,10.324 -1.893,3.273 -2.55,5.945 -3.667,9.51 -0.377,1.201 -0.916,3.713 -1.928,4.508 -1.437,1.131 -2.271,0.018 -3.598,0.469 -3.415,1.162 -5.847,2.627 -8.904,4.545 -1.449,0.91 -3.339,1.672 -5.085,1.299 -0.464,-0.1 -4.042,-2.502 -3.321,-2.787 -4.179,1.654 -7.297,-2.328 -7.098,-6.102 0.315,-5.982 2.694,-12.246 3.908,-18.107 1.268,-6.125 3.319,-12.41 3.693,-18.584 0.33,-5.447 1.239,-10.381 2.948,-15.615 -4.916,-0.313 -5.802,1.621 -8.207,5.932 -1.799,3.225 -3.677,6.801 -6.252,9.369 -2.173,2.166 -5.678,2.561 -5.017,-1.277 0.61,-3.539 3.725,-8.057 5.251,-11.398 1.881,-4.121 3.332,-8.803 5.766,-12.684 1.807,-2.883 4.745,-5.332 7.168,-7.734 2.494,-2.471 5.856,-7.295 9.083,-8.535 1.543,-0.592 1.621,0.51 2.991,-1.061 5.443,-6.229 4.342,-17.358 5.433,-25.008 1.715,-12.025 3.173,-24.15 5.493,-36.08 2.171,-11.168 4.556,-22.198 8.333,-32.925 1.144,-3.246 2.633,-6.761 4.398,-9.725 1.66,-2.786 3.632,-5.245 4.635,-8.374 1.08,-3.37 0.84,-6.95 1.048,-10.474 0.317,-5.377 1.108,-10.365 1.758,-15.729 1.305,-10.756 3.346,-21.366 4.649,-32.099 1.183,-9.744 2.748,-19.408 3.674,-29.167 0.413,-4.347 1.054,-8.686 1.835,-12.999 0.723,-3.991 0.825,-9.063 2.863,-12.557 2.124,-3.642 5.583,-5.015 9.221,-6.788 5.413,-2.638 11.044,-4.926 16.674,-7.155 8.252,-3.268 16.162,-7.608 24.59,-10.583 3.918,-1.383 8.6,-2.773 11.753,-5.592 3.792,-3.389 2.949,-12.384 1.731,-16.861 -0.546,-2.006 -1.673,-3.797 -2.091,-5.874 -1.156,-5.75 -0.452,-11.944 -1.659,-17.683 -1.243,-5.907 -5.77,-11.215 -6.668,-17.642 -0.82,-5.861 -0.778,-12.906 0.261,-18.684 1.802,-10.013 12.894,-18.47 22.225,-21.01 2.441,-0.665 6.69,-1.553 9.125,-0.634 0.773,-1.291 6.659,0.313 8.027,0.66 2.848,0.723 5.608,1.813 8.161,3.269 6.173,3.521 13.375,10.48 14.677,17.715 1.039,5.777 1.081,12.822 0.261,18.684 -0.898,6.427 -5.425,11.734 -6.668,17.642 -1.207,5.739 -0.502,11.932 -1.659,17.683 -0.418,2.077 -1.545,3.868 -2.091,5.874 -1.218,4.477 -2.06,13.472 1.731,16.861 3.153,2.819 7.835,4.208 11.753,5.592 8.428,2.975 16.337,7.315 24.59,10.583 5.63,2.229 11.262,4.518 16.674,7.155 3.638,1.773 7.098,3.146 9.221,6.788 2.038,3.494 2.14,8.566 2.863,12.557 0.782,4.313 1.423,8.652 1.835,12.999 0.926,9.759 2.491,19.423 3.674,29.167 1.303,10.733 3.345,21.343 4.649,32.099 0.65,5.364 1.441,10.352 1.758,15.729 0.26,4.408 -0.136,8.734 0.333,13.188 0.513,4.867 1.31,9.706 1.547,14.599 0.254,5.228 1.135,12.736 -0.368,17.757 -1.625,5.426 -12.232,5.224 -17,5.659 -4.87,0.444 -9.721,0.691 -14.597,1.002 -1.472,0.094 -3.074,0.536 -4.344,0.044 1.185,3.766 2.468,7.5 3.678,11.259 5.475,17.007 9.28,34.498 13.759,51.764 2.528,9.743 3.896,19.749 5.575,29.651 0.339,2 2,4.201 1.627,6.295 -0.027,0.16 -0.068,0.32 -0.123,0.481 z M 234.782,263.314 c -1.19,-4.311 -0.582,-10.174 -0.675,-14.649 -0.233,-11.069 -2.397,-22.375 -4.349,-33.257 0.239,8.895 -0.532,17.769 -1.482,26.604 -0.184,1.71 -1.442,21.062 -2.785,21.273 3.083,-0.471 5.814,-0.373 8.958,0.029"
           inkscape:connector-curvature="0"
           style="fill:#d1d1d1" />
        <line
           id="line3870"
           y2="749.64697"
           x2="260.61499"
           y1="13.646"
           x1="260.61499"
           style="fill:none;stroke:#ff1b00;stroke-width:2" />
        <line
           id="line3872"
           y2="749.64697"
           x2="67.614998"
           y1="13.646"
           x1="67.614998"
           style="fill:none;stroke:#ff1b00;stroke-width:2" />
        <line
           id="line3874"
           y2="14.647"
           x2="259.61499"
           y1="14.647"
           x1="66.614998"
           style="fill:none;stroke:#ff1b00;stroke-width:2" />
        <path
           id="path3876"
           d="m 135.949,157.147 h -2.111 l -20.033,-4.745 c -4.104,-0.972 -8.221,-1.898 -12.313,-2.917 -2.477,-0.616 -4.613,-1.725 -7.052,-0.449 -2.492,1.303 -3.734,4.094 -3.74,6.833 -0.016,7.652 7.154,8.958 11.249,13.776 4.144,4.875 8.038,10.043 12.25,14.943 3.958,4.605 8.301,9.337 13.745,12.196 2.381,1.25 5.16,2.021 8.005,2.479 v -42.116 z"
           inkscape:connector-curvature="0"
           style="stroke:#ffffff" />
        <path
           id="path3878"
           d="m 192.25,157.147 h 2.111 l 20.033,-4.745 c 4.104,-0.972 8.221,-1.898 12.313,-2.917 2.477,-0.616 4.613,-1.725 7.052,-0.449 2.492,1.303 3.734,4.094 3.74,6.833 0.016,7.652 -7.154,8.958 -11.249,13.776 -4.144,4.875 -8.038,10.043 -12.25,14.943 -3.958,4.605 -8.301,9.337 -13.745,12.196 -2.381,1.25 -5.16,2.021 -8.005,2.479 v -42.116 z"
           inkscape:connector-curvature="0"
           style="stroke:#ffffff" />
        <path
           id="path3880"
           d="m 55.678,300.642 c -2.398,12.579 -4.198,25.327 -8.251,37.506 -1.248,3.75 -2.86,7.713 -2.898,11.545 -0.03,3.084 -1.415,5.619 -2.482,8.46 -0.669,1.782 -1.583,3.461 -2.25,5.244 -0.682,1.822 -1.313,4.391 -1.169,6.334 0.268,3.627 3.992,1.18 6.412,0.355 2.898,-0.987 5.633,-1.537 6.013,-4.917 0.448,-3.996 1.819,-7.146 2.78,-11.021 1.004,-4.052 0.979,-8.525 1.319,-12.676 0.843,-10.3 3.048,-20.412 5.963,-30.313 2.115,-7.183 4.259,-14.557 7.444,-21.336 1.519,-3.231 4.24,-6.274 5.507,-9.482 0.898,-2.275 0.225,-4.198 -2.188,-4.7 -2.872,-0.598 -4.849,2.106 -7.509,1.949 -2.084,-0.123 -1.777,-1.224 -2.861,0.969 -1.072,2.171 -1.518,4.977 -2.191,7.305 -1.409,4.875 -2.688,9.791 -3.639,14.778 z"
           inkscape:connector-curvature="0"
           style="stroke:#ffffff" />
        <path
           id="path3882"
           d="m 54.615,365.891 c 2.819,-4.108 4.284,-8.442 5.694,-13.181 0.803,-2.698 1.531,-5.416 2.307,-8.126 1.431,-5.002 3.001,-9.895 4.305,-14.937 1.927,-7.451 3.794,-14.927 4.499,-22.569 0.691,-7.492 2.732,-14.734 3.751,-22.18 0.222,-1.621 -0.32,-4.528 0.994,-5.688 0.69,-0.608 2.463,-0.937 3.377,-1.314 1.095,-0.452 5.053,-2.562 6.071,-2.26 0.198,0.059 0.503,0.02 0.714,0.05 0.373,1.978 -1.088,3.153 -1.906,4.724 -0.67,1.288 -1.096,2.688 -1.738,3.987 -0.956,1.933 -2.196,3.42 -2.769,5.744 -1.277,5.184 -1.508,10.613 -2.176,15.881 -0.723,5.694 -2.111,11.29 -3.618,16.82 -1.909,7.009 -2.6,14.287 -4.563,21.249 -1.656,5.874 -3.763,11.483 -6.681,16.802 -1.805,3.291 -1.571,6.876 -3.059,10.254 -1.435,3.258 -3.135,0.732 -4.613,-0.729 -1.762,-1.746 -2.214,-2.159 -0.589,-4.527 z"
           inkscape:connector-curvature="0"
           style="stroke:#ffffff" />
        <path
           id="path3884"
           d="m 17.365,388.649 c 0,0 1.75,-4.252 16.25,-14.252 0,0 3.25,7.125 7.125,7.125 3.875,0 5.375,-1.625 5.375,-4.375 0,0 6.125,5.875 10.25,1.75 0,0 -0.25,28.002 -1.75,29.502 0,0 -0.5,0 -3.75,0 0,0 -12.25,-1.25 -17.75,0 0,0 -5.5,-2.25 -9,-2.25 l 7.5,-20.75 c 0,0 3.05,-9.053 -4.25,-1.752 0,0 -5,2.502 -6.625,6.627 l -3.375,-1.625 z"
           inkscape:connector-curvature="0"
           style="stroke:#ffffff" />
        <path
           id="path3886"
           d="m 27.811,420.163 c 0.92,-3.635 5.495,-11.799 -2.195,-11.014 -1.576,0.16 -2.407,1.439 -0.81,2.484 -1.984,1.104 -0.061,4.863 -0.44,6.766 -0.341,1.709 -1.183,2.406 -1.938,3.756 -0.868,1.553 -0.841,1.377 0.875,2.307 3.713,2.01 3.708,-1.143 4.508,-4.299 z"
           inkscape:connector-curvature="0"
           style="stroke:#ffffff" />
        <path
           id="path3888"
           d="m 39.615,409.704 c -0.923,-0.918 -5.818,-0.35 -6.166,0.934 -0.064,0.238 0.279,1.813 0.699,1.514 -1.339,0.955 -0.917,4.439 -1.228,5.998 -0.431,2.158 -1.198,4.281 -2.361,6.248 -1.15,1.947 -1.983,3.455 0.806,4.002 1.778,0.348 4.404,0.43 5.013,-1.238 0.703,-1.924 -0.435,-4.422 -0.755,-6.014 -0.461,-2.293 1.062,-5 2.492,-6.803 1.298,-1.637 3.504,-2.647 1.5,-4.641 z"
           inkscape:connector-curvature="0"
           style="stroke:#ffffff" />
        <path
           id="path3890"
           d="m 43.865,424.899 c -0.126,2.082 0.349,3.063 -1.92,3.17 -1.21,0.059 -3.175,-0.559 -3.403,-1.922 -0.213,-1.279 0.884,-1.084 1.272,-1.998 0.545,-1.283 -0.144,-2.809 0.356,-4.244 1.119,-3.215 3.813,-5.586 2.218,-9 1.385,-1.512 4.681,-2.922 5.67,-0.506 0.714,1.744 -0.669,4.383 -1.376,5.994 -1.247,2.842 -2.624,5.333 -2.817,8.506 z"
           inkscape:connector-curvature="0"
           style="stroke:#ffffff" />
        <path
           id="path3892"
           d="m 46.865,430.399 c -2.026,-1.91 0.645,-3.801 1.068,-5.764 0.383,-1.777 -0.471,-2.67 -0.006,-4.432 0.485,-1.836 1.139,-3.418 1.431,-5.305 0.331,-2.141 0.429,-3.543 2.952,-3.055 4.248,0.82 0.394,8.006 -1.014,10.234 -0.976,1.545 -0.481,1.762 -0.619,3.57 -0.109,1.434 -0.984,4.646 -2.812,4.5"
           inkscape:connector-curvature="0"
           style="stroke:#ffffff" />
        <path
           id="path3894"
           d="m 20.539,391.431 c -1.64,2.248 -3.703,4.121 -5.436,6.281 -0.874,1.088 -1.664,3.637 -3.231,3.691 -3.273,0.115 0.397,-4.406 1.056,-5.512 0.686,-1.148 1.996,-4.838 3.195,-5.393 0.895,-0.415 3.187,0.856 4.416,0.933 z"
           inkscape:connector-curvature="0"
           style="stroke:#ffffff" />
        <path
           id="path3896"
           d="m 7.865,405.149 c 0.018,-1.232 -0.335,-2.045 0.751,-2.506 0.891,-0.377 2.064,0.199 2.456,1.008 0.51,1.053 -0.173,2.104 -0.938,2.697 -1.235,0.957 -1.384,-0.248 -2.018,1.551 -0.415,1.178 -0.879,4.324 -2.438,1.492 -1.113,-2.021 1.672,-3.234 1.938,-5.242"
           inkscape:connector-curvature="0"
           style="stroke:#ffffff" />
        <path
           id="path3898"
           d="m 23.547,434.147 c 0.807,-1.91 3.078,-5.055 1.634,-7.08 -0.945,-1.326 -4.584,-2.164 -5.57,-0.561 -0.852,1.385 0.697,4.068 0.51,5.645 -0.301,2.529 -3.639,5.777 -1.012,7.996 3.383,2.858 3.641,-4.115 4.438,-6 z"
           inkscape:connector-curvature="0"
           style="stroke:#ffffff" />
        <path
           id="path3900"
           d="m 34.065,431.899 c -0.348,-2.635 -4.065,-3.186 -5.667,-1.359 -0.71,0.811 0.051,2.639 -0.02,3.609 -0.113,1.549 -1.162,3.08 -1.831,4.443 -1.407,2.863 -1.401,6.295 2.818,5 3.228,-0.99 2.755,-4.148 3.507,-6.938 0.341,-1.264 1.363,-3.466 1.193,-4.755 z"
           inkscape:connector-curvature="0"
           style="stroke:#ffffff" />
        <path
           id="path3902"
           d="m 42.627,431.394 c -0.709,-2.941 -4.718,-1.688 -5.484,0.42 -0.759,2.09 -0.024,4.498 -0.772,6.574 -0.255,0.709 -1.619,1.975 -1.467,2.76 0.258,1.328 3.229,1.334 4.217,1.008 2.578,-0.854 1.059,-4.445 1.926,-6.756 0.367,-0.979 1.833,-2.958 1.58,-4.006 z"
           inkscape:connector-curvature="0"
           style="stroke:#ffffff" />
        <path
           id="path3904"
           d="m 46.365,433.649 c -2.373,-0.223 -2.599,3.791 -0.237,3.455 1.53,-0.217 2.52,-4.996 -0.263,-3.455"
           inkscape:connector-curvature="0"
           style="stroke:#ffffff" />
        <path
           id="path3906"
           d="m 17.615,441.649 c 1.839,1.295 2.648,0.004 2.237,2.736 -0.226,1.496 -0.667,2.574 -1.73,3.77 -3.478,3.918 -1.807,-4.929 -0.507,-6.506"
           inkscape:connector-curvature="0"
           style="stroke:#ffffff" />
        <path
           id="path3908"
           d="m 27.864,449.261 c 1.513,-2.623 -1.138,-4.695 -3.546,-3.219 -1.611,0.99 -1.239,2.525 -1.267,4.119 -0.026,1.465 -0.701,3.107 -0.13,4.475 0.25,0.6 1.211,2.127 1.951,1.98 0.939,-0.186 1.104,-3.482 1.312,-4.174 0.371,-1.234 1.027,-2.05 1.68,-3.181 z"
           inkscape:connector-curvature="0"
           style="stroke:#ffffff" />
        <path
           id="path3910"
           d="m 34.615,451.899 c -0.607,-0.293 -1.187,-0.646 -1.718,-1.051 0.59,-1.635 1.58,-2.361 1.718,-4.199 0.108,-1.438 -0.554,-2.697 1.058,-3.004 4.97,-0.949 2.323,8.029 -1.308,8.254"
           inkscape:connector-curvature="0"
           style="stroke:#ffffff" />
        <path
           id="path3912"
           d="m 41.115,375.147 c -2.26,1.141 0.372,2.9 2.068,2.012 1.354,-0.709 1.266,-2.363 2.426,-3.018 2.862,-1.611 5.255,1.752 7.562,1.949 1.629,0.139 2.366,-1.082 1.394,-2.393 -0.743,-1.002 -3.069,-1.445 -4.199,-1.563 -3.176,-0.334 -7.589,0.654 -9.5,3.262"
           inkscape:connector-curvature="0"
           style="stroke:#ffffff" />
        <path
           id="path3914"
           d="m 81.865,263.647 c 0.391,2.109 0.715,4.238 0.957,6.37 0.114,1.011 0.706,3.066 -0.14,3.882 -0.939,0.906 -2.261,-0.223 -3.267,0.3 -0.495,0.257 -0.84,1.886 -1.532,2.435 -3.922,3.112 -8.154,-1.038 -10.025,-4.215 -1.292,0.872 -2.807,1.708 -4.43,1.922 -0.933,0.123 -3.081,0.192 -3.717,-0.699 -1.581,-2.219 3.194,-8.405 4.503,-10.221 3.163,-4.39 6.582,-8.544 7.461,-13.971 0.614,-3.79 1.216,-7.583 1.808,-11.376 1.646,-10.557 3.213,-21.128 4.642,-31.717 1.709,-12.665 3.471,-25.427 3.991,-38.208 0,0 2.25,-27 21.5,-17 0,0 4.596,14.532 -8.5,16.75 -0.001,-0.002 -16.001,72.748 -13.251,95.748 z"
           inkscape:connector-curvature="0"
           style="stroke:#ffffff" />
        <path
           id="path3916"
           d="m 230.152,170.402 13.107,93.54 c 0,0 -5.041,5.211 -4.897,8.709 0,0 -0.629,9.033 6.502,5.988 0,0 -5.741,12.497 4.148,9.587 0,0 6.963,-1.037 6.397,-14.775 0,0 4.965,-0.955 2.056,-10.844 l -12.203,-89.824 c 0,0 3.521,-5.649 3.089,-16.141 0,0 -10.263,-18.344 -19.169,-3.715 0.001,0 -2.877,9.126 0.97,17.475 z"
           inkscape:connector-curvature="0"
           style="stroke:#ffffff" />
        <path
           id="path3918"
           d="m 237.977,343.979 -6.334,6.333 c 3.084,-7.93 2.186,-16.265 -3.232,-22.913 -2.094,-2.569 -4.66,-4.736 -7.404,-6.579 -12.603,-8.459 -33.345,-2.568 -38.696,12.158 h -9.908 V 202.313 H 155.737 V 332.98 h -9.908 c -5.352,-14.727 -26.094,-20.618 -38.696,-12.158 -2.744,1.843 -5.311,4.009 -7.404,6.579 -5.418,6.648 -6.316,14.983 -3.232,22.913 l -6.334,-6.333 c 0,0 -4.166,4.167 0,8.333 0,0 16.333,14 13,24.667 0,0 20.001,-4 17.335,17.336 0,0 9.333,6.334 12.333,15 0,0 7.666,10.668 21.333,0 0,0 6.626,-7.336 9.908,-8.449 3.284,1.117 9.906,8.449 9.906,8.449 13.667,10.668 21.333,0 21.333,0 3,-8.666 12.333,-15 12.333,-15 -2.666,-21.336 17.335,-17.336 17.335,-17.336 -3.333,-10.668 13,-24.667 13,-24.667 4.164,-4.168 -0.002,-8.335 -0.002,-8.335 z m -41.328,23.543 c -0.75,1.242 -9.689,13.672 -11.342,12.791 -4.407,-2.348 -16.993,1.123 -21.239,2.4 -4.246,-1.277 -16.833,-4.748 -21.239,-2.398 -1.652,0.879 -10.592,-11.55 -11.342,-12.793 -2.302,-3.815 -3.625,-9.637 -1.941,-13.926 2.542,-6.476 9.162,-4.069 12.949,-0.282 l 1.333,5.333 1.833,1.833 v 11.833 c 0,0 13.639,1.176 18.402,9.406 v 0.016 c 0.001,-0.002 0.003,-0.006 0.005,-0.008 0.002,0.002 0.004,0.006 0.005,0.008 v -0.016 c 4.764,-8.23 18.402,-9.406 18.402,-9.406 V 360.48 l 1.833,-1.832 1.333,-5.334 c 3.787,-3.787 10.407,-6.193 12.949,0.282 1.684,4.29 0.361,10.11 -1.941,13.926 z"
           inkscape:connector-curvature="0"
           style="stroke:#ffffff" />
        <path
           id="path3920"
           d="m 138.782,392.315 h 16 c 0,0 0.667,6.668 -9,9 0,0 -9.333,0.159 -7,-9 z"
           inkscape:connector-curvature="0"
           style="fill:none;stroke:#000000" />
        <path
           id="path3922"
           d="m 189.751,392.315 h -16 c 0,0 -0.667,6.668 9,9 0,0 9.333,0.159 7,-9 z"
           inkscape:connector-curvature="0"
           style="fill:none;stroke:#000000" />
        <rect
           id="rect3924"
           height="3"
           width="20"
           y="356.397"
           x="154.282"
           style="fill:#ffffff" />
        <rect
           id="rect3926"
           height="3"
           width="19.5"
           y="362.397"
           x="154.532"
           style="fill:#ffffff" />
        <rect
           id="rect3928"
           height="3"
           width="18"
           y="368.397"
           x="155.282"
           style="fill:#ffffff" />
        <path
           id="path3930"
           d="m 202.675,169.307 c 0,0 -8.895,-34.52 -32.722,-41.031 v -25.012 c 8.361,-2.378 14.602,-9.333 15.407,-17.764 v -0.003 c 0.058,-0.609 0.093,-1.226 0.093,-1.85 0,-0.622 -0.035,-1.237 -0.093,-1.845 V 67.011 c 4.211,-5.314 6.759,-12.183 6.759,-19.696 0,-16.845 -12.76,-30.5 -28.5,-30.5 -15.74,0 -28.5,13.655 -28.5,30.5 0,7.459 2.51,14.285 6.667,19.583 V 85.5 h 0.093 c 0.805,8.431 7.045,15.385 15.406,17.763 v 25.013 c -23.827,6.51 -32.722,41.031 -32.722,41.031 -33.186,109.562 1.231,111.358 1.231,111.358 23.57,-3.16 34.738,-65.255 34.738,-65.255 l 3.086,-0.108 3.086,0.108 c 0,0 11.167,62.096 34.738,65.255 0.001,10e-4 34.419,-1.796 1.233,-111.358 z"
           inkscape:connector-curvature="0"
           style="stroke:#ffffff" />
        <path
           id="path3932"
           d="m 156.441,141.263 c -0.644,-2.52 -5.14,-1.735 -7.013,-1.621 -3.478,0.212 -7.102,0.686 -10.563,0.756 l 0.034,0.234 H 87.865 l -8,6.516 8,-1.484 h 51.902 c 3.387,0.28 6.42,2.642 9.848,2.484 2.359,-0.11 7.532,-4.122 6.826,-6.885 z"
           inkscape:connector-curvature="0"
           style="stroke:#ffffff" />
        <path
           id="path3934"
           d="m 171.181,141.263 c 0.644,-2.52 5.14,-1.735 7.013,-1.621 3.478,0.212 7.102,0.686 10.563,0.756 l -0.034,0.234 h 51.034 l 8,6.516 -8,-1.484 h -51.902 c -3.387,0.28 -6.42,2.642 -9.848,2.484 -2.359,-0.11 -7.532,-4.122 -6.826,-6.885 z"
           inkscape:connector-curvature="0"
           style="stroke:#ffffff" />
        <path
           id="path3936"
           d="m 94.783,417.983 c 0.099,0.297 15.028,45.256 23.666,122.998 l -4.667,18.002 c 0,0 0.333,5.332 12.667,5.332 0,0 22.333,3 27.333,-2 0,0 -0.333,-11 1.667,-17 0,0 -19.333,-10 -28,-36.666 -4.556,-19.611 -8.8,-39.311 -12.567,-59.088 -2.487,-13.059 -6.705,-26.557 -4.699,-39.975 0.93,-6.219 3.645,-13.018 8.478,-17.271 3.687,-3.246 10.45,-4.672 11.548,-10.174 0.963,-4.826 -1.481,-11.16 -6.778,-12.434 -2.607,-0.627 -8.253,1.178 -10.305,3.082 -0.665,0.617 -3.515,8.111 -2.738,8.141 -3.944,-0.152 -10.329,4.158 -13.688,1.066 -1.987,-1.828 -2.116,-5.908 -5.176,-6.771 -1.962,-0.553 -5.346,2.064 -6.984,3.424 -1.303,1.082 -2.992,1.965 -3.107,3.684 -0.143,2.117 1.284,5.637 1.859,7.768 0.892,3.309 1.936,6.584 3.089,9.811 1.155,3.23 2.44,6.416 3.887,9.527 1.301,2.798 3.552,5.654 4.515,8.544 z"
           inkscape:connector-curvature="0"
           style="stroke:#ffffff" />
        <path
           id="path3938"
           d="m 235.917,417.983 c -0.099,0.297 -15.028,45.256 -23.666,122.998 l 4.667,18.002 c 0,0 -0.333,5.332 -12.667,5.332 0,0 -22.333,3 -27.333,-2 0,0 0.333,-11 -1.667,-17 0,0 19.333,-10 28,-36.666 4.556,-19.611 8.8,-39.311 12.567,-59.088 2.487,-13.059 6.705,-26.557 4.699,-39.975 -0.93,-6.219 -3.645,-13.018 -8.478,-17.271 -3.687,-3.246 -10.45,-4.672 -11.548,-10.174 -0.963,-4.826 1.481,-11.16 6.778,-12.434 2.607,-0.627 8.253,1.178 10.305,3.082 0.665,0.617 3.515,8.111 2.738,8.141 3.944,-0.152 10.329,4.158 13.688,1.066 1.987,-1.828 2.116,-5.908 5.176,-6.771 1.962,-0.553 5.346,2.064 6.984,3.424 1.303,1.082 2.992,1.965 3.107,3.684 0.143,2.117 -1.284,5.637 -1.859,7.768 -0.892,3.309 -1.936,6.584 -3.089,9.811 -1.155,3.23 -2.44,6.416 -3.887,9.527 -1.302,2.798 -3.553,5.654 -4.515,8.544 z"
           inkscape:connector-curvature="0"
           style="stroke:#ffffff" />
        <circle
           id="circle3940"
           r="9.8330002"
           cy="552.48102"
           cx="131.282"
           d="m 141.115,552.48102 c 0,5.43061 -4.40239,9.833 -9.833,9.833 -5.43062,0 -9.833,-4.40239 -9.833,-9.833 0,-5.43062 4.40238,-9.833 9.833,-9.833 5.43061,0 9.833,4.40238 9.833,9.833 z"
           sodipodi:cx="131.282"
           sodipodi:cy="552.48102"
           sodipodi:rx="9.8330002"
           sodipodi:ry="9.8330002"
           style="stroke:#ffffff" />
        <circle
           id="circle3942"
           r="9.8330002"
           cy="552.25702"
           cx="196.51601"
           d="m 206.34901,552.25702 c 0,5.43062 -4.40239,9.833 -9.833,9.833 -5.43062,0 -9.833,-4.40238 -9.833,-9.833 0,-5.43062 4.40238,-9.833 9.833,-9.833 5.43061,0 9.833,4.40238 9.833,9.833 z"
           sodipodi:cx="196.51601"
           sodipodi:cy="552.25702"
           sodipodi:rx="9.8330002"
           sodipodi:ry="9.8330002"
           style="stroke:#ffffff" />
        <line
           id="line3944"
           y2="749.64697"
           x2="164.11501"
           y1="13.646"
           x1="164.11501"
           style="fill:none;stroke:#ff1b00;stroke-width:2;stroke-dasharray:4, 4" />
        <path
           id="path3946"
           d="m 153.45,570.882 c 0.312,-4.521 0.48,-5.73 -4.072,-4.676 -4.485,1.041 -9.275,0.881 -13.847,0.775 -3.12,-0.07 -6.246,-0.234 -9.344,-0.617 -2.024,-0.25 -6.281,-1.965 -7.691,-0.646 -4.05,3.781 0.046,15.984 0.62,20.523 0.833,6.586 -0.644,12.9 -0.564,19.42 0.188,15.355 0.737,30.5 3.564,45.654 1.495,8.014 2.99,16.027 4.485,24.041 0.962,5.154 1.923,10.309 2.885,15.461 0.43,2.303 1.32,4.488 1.637,6.775 0.638,4.615 -0.771,9.365 -2.081,13.74 -0.512,1.709 -5.717,15.377 0.35,11.258 2.329,-1.584 2.162,-5.787 4.196,-7.809 6.084,-6.041 13.854,-2.254 21.136,-2.184 2.297,-5.563 1.299,-9.355 -2.016,-14.264 -1.695,-2.512 -4.422,-3.926 -5.102,-6.896 -1.263,-5.518 -0.517,-12.449 -0.824,-18.133 -0.469,-8.664 -0.812,-17.322 -1.316,-25.99 -0.676,-11.641 -0.818,-23.645 -0.684,-35.324 0.063,-5.529 0.018,-11.555 1.909,-16.752 1.924,-5.287 4.404,-10.533 5.833,-15.906 0.736,-2.774 0.728,-5.587 0.926,-8.45 z"
           inkscape:connector-curvature="0"
           style="fill:#020202;stroke:#ffffff" />
        <path
           id="path3948"
           d="m 131.688,586.132 c -0.298,-0.887 -0.516,-1.814 -0.761,-2.506 -0.506,-1.426 -3.949,-5.449 -2.729,-7.031 -1.622,2.09 -1.507,7.719 -0.351,10.1 0.708,1.455 4.486,3.941 6.003,4.539 4.186,1.65 5.216,-4.473 8.873,-5.977 -0.091,-1.721 0.101,-3.789 1.718,-4.631 1.486,-0.775 5.218,1.176 4.306,-2.26 -0.453,-1.707 -7.337,2.787 -7.934,3.465 -1.727,1.957 -2.26,5.195 -4.682,6.574 -2.696,1.532 -3.772,-0.271 -4.443,-2.273 z"
           inkscape:connector-curvature="0"
           style="fill:#ffffff" />
        <path
           id="path3950"
           d="m 123.782,590.714 c 0.046,-2.66 2.233,-7.178 -0.376,-9.139 -1.717,2.346 0.597,5.832 0.71,8.406 0.124,2.836 0.159,5.506 0.334,8.326 0.501,8.033 0.121,16.059 0.667,24.082 0.229,3.359 2.506,6.422 3.258,9.918 1.216,5.652 0.741,11.816 0.741,17.6 0,5.781 -0.047,11.713 0.742,17.406 0.693,5.002 3.113,9.344 4.175,14.262 0.784,3.629 1.133,7.395 1.824,11.074 0.464,2.469 -0.034,6.049 0.859,8.256 -0.673,-11.617 -3.561,-22.844 -5.617,-34.273 -1.727,-9.598 -1.191,-20.174 -1.724,-29.965 -0.138,-2.539 -0.127,-5.143 -0.259,-7.711 -0.116,-2.242 -0.572,-2.295 -1.342,-3.957 -1.326,-2.859 -1.667,-5.688 -1.658,-8.992 0.012,-4.111 0.282,-8.348 -0.001,-12.449 -0.302,-4.354 -2.411,-8.383 -2.333,-12.844 z"
           inkscape:connector-curvature="0"
           style="fill:#ffffff" />
        <path
           id="path3952"
           d="m 179.67,570.778 c -0.312,-4.521 -0.48,-5.73 4.072,-4.676 4.485,1.041 9.275,0.881 13.847,0.775 3.12,-0.07 6.246,-0.234 9.344,-0.617 2.679,-0.33 7.306,-2.555 9.95,-1.738 4.245,1.307 1.081,9.176 -0.06,11.646 -2.331,5.047 -4.357,11.098 -3.375,16.73 3.388,19.42 0.041,38.928 -2.444,58.313 -1.495,8.014 -2.99,16.027 -4.485,24.041 -0.962,5.154 -1.923,10.309 -2.885,15.461 -0.43,2.303 -1.32,4.488 -1.637,6.775 -0.638,4.615 0.771,9.365 2.081,13.74 0.512,1.709 5.717,15.377 -0.35,11.258 -2.329,-1.584 -2.162,-5.787 -4.196,-7.809 -6.084,-6.041 -13.854,-2.254 -21.136,-2.184 -2.297,-5.563 -1.299,-9.355 2.016,-14.264 1.695,-2.512 4.422,-3.926 5.102,-6.896 1.263,-5.518 0.517,-12.449 0.824,-18.133 0.469,-8.664 0.812,-17.322 1.316,-25.99 0.676,-11.641 0.818,-23.645 0.684,-35.324 -0.063,-5.529 -0.018,-11.555 -1.909,-16.752 -1.924,-5.287 -4.404,-10.533 -5.833,-15.906 -0.737,-2.774 -0.729,-5.586 -0.926,-8.45 z"
           inkscape:connector-curvature="0"
           style="fill:#020202;stroke:#ffffff" />
        <path
           id="path3954"
           d="m 201.431,586.028 c 0.298,-0.887 0.516,-1.814 0.761,-2.506 0.506,-1.426 3.949,-5.449 2.729,-7.031 1.622,2.09 1.507,7.719 0.351,10.1 -0.708,1.455 -4.486,3.941 -6.003,4.539 -4.186,1.65 -5.216,-4.473 -8.873,-5.977 0.091,-1.721 -0.101,-3.789 -1.718,-4.631 -1.486,-0.775 -5.218,1.176 -4.306,-2.26 0.453,-1.707 7.337,2.787 7.934,3.465 1.727,1.957 2.26,5.195 4.682,6.574 2.697,1.532 3.772,-0.271 4.443,-2.273 z"
           inkscape:connector-curvature="0"
           style="fill:#ffffff" />
        <path
           id="path3956"
           d="m 209.338,590.61 c -0.046,-2.66 -2.233,-7.178 0.376,-9.139 1.717,2.346 -0.597,5.832 -0.71,8.406 -0.124,2.836 -0.159,5.506 -0.334,8.326 -0.501,8.033 -0.121,16.059 -0.667,24.082 -0.229,3.359 -2.506,6.422 -3.258,9.918 -1.216,5.652 -0.741,11.816 -0.741,17.6 0,5.781 0.047,11.713 -0.742,17.406 -0.693,5.002 -3.113,9.344 -4.175,14.262 -0.784,3.629 -1.133,7.395 -1.824,11.074 -0.464,2.469 0.034,6.049 -0.859,8.256 0.673,-11.617 3.561,-22.844 5.617,-34.273 1.727,-9.598 1.191,-20.174 1.724,-29.965 0.138,-2.539 0.127,-5.143 0.259,-7.711 0.116,-2.242 0.572,-2.295 1.342,-3.957 1.326,-2.859 1.667,-5.688 1.658,-8.992 -0.012,-4.111 -0.282,-8.348 0.001,-12.449 0.302,-4.353 2.411,-8.383 2.333,-12.844 z"
           inkscape:connector-curvature="0"
           style="fill:#ffffff" />
        <path
           id="path3958"
           d="m 152.391,714.323 c -2.49,-4.027 -10.076,-3.201 -13.809,-1.684 -2.594,1.055 -9.973,5.387 -5.132,8.35 2.726,1.666 5.274,-2.73 7.666,-3.6 3.242,-1.176 8.001,2.061 10.675,0.525 1.527,-0.876 1.455,-2.206 0.6,-3.591 z"
           inkscape:connector-curvature="0"
           style="fill:#020202;stroke:#ffffff" />
        <path
           id="path3960"
           d="m 199.537,717.729 c 0.763,-1.713 -0.334,-4.195 -3.55,-5.086 -4.198,-1.164 -13.851,-2.373 -15.804,2.994 -2.196,6.039 7.178,3.789 9.617,3.344 1.914,-0.35 2.999,-0.189 4.722,0.252 2.71,0.696 4.423,-0.171 5.015,-1.504 z"
           inkscape:connector-curvature="0"
           style="fill:#020202;stroke:#ffffff" />
        <path
           id="path3962"
           d="m 154.774,737.331 c 0.947,1.926 3.251,2.313 4.108,4.525 0.641,1.654 0.853,4.318 -0.327,5.809 -2.129,2.689 -9.097,2.512 -12.093,2.652 -6.275,0.293 -12.161,0.248 -18.431,0 -4.668,-0.184 -9.288,-0.334 -13.991,-0.336 -2.429,0 -6.992,1.035 -9.124,-0.379 -2.12,-1.406 -1.247,-3.828 0.599,-5.287 1.929,-1.523 4.551,-4.279 6.915,-5.09 2.088,-0.717 3.406,-0.229 5.277,-1.586 7.431,-5.391 13.229,-13.58 21.39,-17.982 3.819,-2.059 10.432,-1.635 13.357,1.975 1.713,2.113 2.193,5.523 2.343,8.1 0.115,1.929 -0.856,5.904 -0.023,7.599 z"
           inkscape:connector-curvature="0"
           style="fill:#020202;stroke:#ffffff" />
        <path
           id="path3964"
           d="m 190.449,749.241 c 6.004,-0.438 11.932,0.498 17.92,0.41 3.616,-0.053 7.23,-0.201 10.845,-0.279 2.734,-0.059 5.913,0.924 7.459,-1.898 3.11,-5.674 -5.3,-7.24 -8.582,-9.426 -2.872,-1.914 -6.289,-3.299 -8.481,-6.072 -2.313,-2.926 -4.154,-5.865 -7.236,-8.234 -2.129,-1.635 -4.604,-3.041 -7.184,-3.686 -8.146,-2.033 -16.376,1.342 -18.148,9.945 -0.469,2.275 0.13,5.498 -0.577,7.666 -0.727,2.227 -3.366,3.617 -4.276,5.982 -2.196,5.701 5.996,5.479 9.594,5.926 2.91,0.362 5.818,-0.125 8.666,-0.334 z"
           inkscape:connector-curvature="0"
           style="fill:#020202;stroke:#ffffff" />
        <line
           id="line3966"
           y2="106.775"
           x2="259.61499"
           y1="106.775"
           x1="66.614998"
           style="opacity:0.72000002;fill:none;stroke:#ff1b00;stroke-width:2" />
        <line
           id="line3968"
           y2="291.03"
           x2="259.61499"
           y1="291.03"
           x1="66.614998"
           style="opacity:0.72000002;fill:none;stroke:#ff1b00;stroke-width:2" />
        <line
           id="line3970"
           y2="383.15701"
           x2="259.61499"
           y1="383.15701"
           x1="66.614998"
           style="opacity:0.72000002;fill:none;stroke:#ff1b00;stroke-width:2" />
        <line
           id="line3972"
           y2="475.28601"
           x2="259.61499"
           y1="475.28601"
           x1="66.614998"
           style="opacity:0.72000002;fill:none;stroke:#ff1b00;stroke-width:2" />
        <line
           id="line3974"
           y2="567.41302"
           x2="259.61499"
           y1="567.41302"
           x1="66.614998"
           style="opacity:0.72000002;fill:none;stroke:#ff1b00;stroke-width:2" />
        <line
           id="line3976"
           y2="659.54199"
           x2="259.61499"
           y1="659.54199"
           x1="66.614998"
           style="opacity:0.72000002;fill:none;stroke:#ff1b00;stroke-width:2" />
        <line
           id="line3978"
           y2="751.66901"
           x2="259.61499"
           y1="751.66901"
           x1="66.614998"
           style="opacity:0.72000002;fill:none;stroke:#ff1b00;stroke-width:2" />
        <ellipse
           id="ellipse3980"
           ry="20.349001"
           rx="23.823"
           cy="194.299"
           cx="129.155"
           d="m 152.978,194.299 c 0,11.23844 -10.66592,20.349 -23.823,20.349 -13.15708,0 -23.823,-9.11056 -23.823,-20.349 0,-11.23845 10.66592,-20.349 23.823,-20.349 13.15708,0 23.823,9.11055 23.823,20.349 z"
           sodipodi:cx="129.155"
           sodipodi:cy="194.299"
           sodipodi:rx="23.823"
           sodipodi:ry="20.349001"
           style="stroke:#ffffff;stroke-width:0.99260002" />
        <ellipse
           id="ellipse3982"
           ry="20.349001"
           rx="23.823"
           cy="194.299"
           cx="199.09599"
           d="m 222.91899,194.299 c 0,11.23844 -10.66592,20.349 -23.823,20.349 -13.15708,0 -23.823,-9.11056 -23.823,-20.349 0,-11.23845 10.66592,-20.349 23.823,-20.349 13.15708,0 23.823,9.11055 23.823,20.349 z"
           sodipodi:cx="199.09599"
           sodipodi:cy="194.299"
           sodipodi:rx="23.823"
           sodipodi:ry="20.349001"
           style="stroke:#ffffff;stroke-width:0.99260002" />
        <line
           id="line3984"
           y2="749.646"
           x2="131.94901"
           y1="13.645"
           x1="131.94901"
           style="opacity:0.72000002;fill:none;stroke:#ff1b00;stroke-width:2" />
        <line
           id="line3986"
           y2="749.64697"
           x2="196.282"
           y1="13.646"
           x1="196.282"
           style="opacity:0.72000002;fill:none;stroke:#ff1b00;stroke-width:2" />
        <line
           id="line3988"
           y2="198.90199"
           x2="259.61499"
           y1="198.90199"
           x1="66.614998"
           style="opacity:0.72000002;fill:none;stroke:#ff1b00;stroke-width:2" />
        <path
           id="path3990"
           d="m 114.792,208.397 c 1.346,-5.872 2.693,-11.745 4.157,-17.589 1.341,-5.353 3.469,-10.66 4.093,-16.161"
           inkscape:connector-curvature="0"
           style="fill:none;stroke:#ffffff;stroke-width:0.99260002;stroke-dasharray:4, 4" />
        <path
           id="path3992"
           d="m 213.792,211.147 c -1.384,-6.158 -2.708,-12.313 -4.243,-18.39 -0.976,-3.864 -1.966,-7.695 -3.031,-11.531 -0.523,-1.886 -0.627,-4.062 -1.476,-5.83"
           inkscape:connector-curvature="0"
           style="fill:none;stroke:#ffffff;stroke-width:0.99260002;stroke-dasharray:4, 4" />
        <path
           id="path3994"
           d="m 237.589,269.12 c -0.687,3.126 -2.064,8.09 1.315,10.267 -3.6,0.298 -8.447,0.276 -11.908,-0.674 -3.559,-0.978 -3.65,-5.994 -2.34,-9.232 3.149,1.748 8.565,1.124 11.933,0.307"
           inkscape:connector-curvature="0"
           style="stroke:#ffffff" />
        <path
           id="path3996"
           d="m 231.219,287.889 c 4.54,0.145 11.247,0.325 11.328,0.506 -1.032,-2.328 -1.119,-4.319 -1.009,-6.892 -2.675,-0.317 -5.374,0.388 -8.074,0.175 -2.678,-0.212 -5.138,-0.568 -7.742,-1.183 0.367,2.417 0.833,4.956 1.586,7.233 0.499,0.046 2.016,0.101 3.911,0.161 z"
           inkscape:connector-curvature="0"
           style="stroke:#ffffff" />
      </g>
      <g
         id="g4404"
         transform="translate(20,-323.96197)">
        <path
           id="path4406"
           d="m 273.286,15.52 c 0,-2.034 0.208,-3.671 0.626,-4.914 0.418,-1.243 1.038,-2.198 1.861,-2.868 0.823,-0.67 1.858,-1.005 3.107,-1.005 0.92,0 1.729,0.186 2.426,0.557 0.697,0.372 1.271,0.907 1.72,1.607 0.449,0.7 0.803,1.553 1.061,2.558 0.257,1.005 0.386,2.36 0.386,4.065 0,2.018 -0.207,3.648 -0.621,4.89 -0.413,1.242 -1.031,2.201 -1.854,2.875 -0.823,0.674 -1.863,1.011 -3.119,1.011 -1.654,0 -2.953,-0.592 -3.897,-1.775 -1.13,-1.438 -1.696,-3.771 -1.696,-7.001 z m 2.172,0.002 c 0,2.829 0.329,4.709 0.987,5.641 0.658,0.932 1.47,1.398 2.435,1.398 0.965,0 1.777,-0.468 2.435,-1.404 0.658,-0.936 0.987,-2.814 0.987,-5.635 0,-2.831 -0.329,-4.712 -0.985,-5.643 -0.657,-0.931 -1.477,-1.396 -2.46,-1.396 -0.965,0 -1.738,0.411 -2.316,1.232 -0.722,1.048 -1.083,2.984 -1.083,5.807 z"
           inkscape:connector-curvature="0" />
      </g>
      <g
         id="g4408"
         transform="translate(20,-323.96197)">
        <path
           id="path4410"
           d="m 281.224,115.494 h -2.109 V 102.04 c -0.508,0.485 -1.174,0.97 -1.998,1.455 -0.824,0.485 -1.564,0.849 -2.221,1.091 v -2.041 c 1.18,-0.555 2.211,-1.228 3.094,-2.017 0.883,-0.79 1.508,-1.557 1.875,-2.299 h 1.359 v 17.265 z"
           inkscape:connector-curvature="0" />
      </g>
      <g
         id="g4412"
         transform="translate(20,-323.96197)">
        <path
           id="path4414"
           d="m 284.364,204.958 v 2.031 H 273.02 c -0.016,-0.508 0.066,-0.996 0.246,-1.465 0.288,-0.773 0.749,-1.534 1.384,-2.283 0.635,-0.749 1.553,-1.615 2.756,-2.6 1.866,-1.538 3.126,-2.754 3.777,-3.649 0.652,-0.895 0.978,-1.742 0.978,-2.541 0,-0.836 -0.297,-1.541 -0.892,-2.115 -0.594,-0.574 -1.369,-0.862 -2.325,-0.862 -1.01,0 -1.818,0.304 -2.424,0.912 -0.606,0.608 -0.913,1.45 -0.921,2.525 l -2.172,-0.219 c 0.148,-1.617 0.706,-2.85 1.671,-3.697 0.967,-0.848 2.264,-1.271 3.893,-1.271 1.645,0 2.946,0.458 3.904,1.373 0.959,0.915 1.438,2.049 1.438,3.401 0,0.688 -0.14,1.364 -0.42,2.029 -0.28,0.664 -0.745,1.364 -1.395,2.099 -0.65,0.735 -1.73,1.744 -3.242,3.025 -1.265,1.063 -2.074,1.785 -2.43,2.164 -0.356,0.379 -0.65,0.76 -0.882,1.143 h 8.4 z"
           inkscape:connector-curvature="0" />
      </g>
      <g
         id="g4416"
         transform="translate(20,-323.96197)">
        <path
           id="path4418"
           d="m 273.302,293.938 2.109,-0.281 c 0.242,1.195 0.651,2.057 1.23,2.584 0.578,0.527 1.287,0.791 2.127,0.791 0.996,0 1.833,-0.343 2.514,-1.031 0.68,-0.687 1.02,-1.538 1.02,-2.553 0,-0.969 -0.316,-1.767 -0.948,-2.396 -0.632,-0.628 -1.435,-0.943 -2.41,-0.943 -0.398,0 -0.893,0.078 -1.486,0.234 l 0.234,-1.859 c 0.141,0.016 0.253,0.023 0.339,0.023 0.895,0 1.7,-0.234 2.416,-0.703 0.716,-0.469 1.074,-1.191 1.074,-2.168 0,-0.773 -0.261,-1.414 -0.781,-1.922 -0.521,-0.508 -1.194,-0.762 -2.019,-0.762 -0.816,0 -1.497,0.258 -2.041,0.773 -0.544,0.515 -0.895,1.289 -1.05,2.32 l -2.109,-0.375 c 0.257,-1.414 0.842,-2.51 1.754,-3.287 0.912,-0.777 2.046,-1.166 3.402,-1.166 0.935,0 1.796,0.202 2.584,0.604 0.787,0.402 1.389,0.951 1.806,1.647 0.417,0.696 0.625,1.434 0.625,2.215 0,0.743 -0.199,1.419 -0.598,2.028 -0.399,0.609 -0.988,1.094 -1.77,1.454 1.016,0.235 1.805,0.721 2.367,1.459 0.563,0.739 0.844,1.663 0.844,2.773 0,1.5 -0.546,2.772 -1.639,3.816 -1.092,1.043 -2.473,1.565 -4.143,1.565 -1.506,0 -2.756,-0.45 -3.75,-1.349 -0.994,-0.899 -1.561,-2.06 -1.701,-3.491 z"
           inkscape:connector-curvature="0" />
      </g>
      <g
         id="g4420"
         transform="translate(20,-323.96197)">
        <path
           id="path4422"
           d="m 280.036,389.98 v -4.109 h -7.438 v -1.938 l 7.828,-11.141 h 1.719 v 11.141 h 2.328 v 1.938 h -2.328 v 4.109 h -2.109 z m 0,-6.047 v -7.743 l -5.365,7.743 h 5.365 z"
           inkscape:connector-curvature="0" />
      </g>
      <g
         id="g4424"
         transform="translate(20,-323.96197)">
        <path
           id="path4426"
           d="m 273.286,476.976 2.219,-0.188 c 0.164,1.08 0.542,1.891 1.136,2.435 0.594,0.544 1.314,0.815 2.161,0.815 1.021,0 1.88,-0.383 2.578,-1.149 0.697,-0.766 1.046,-1.783 1.046,-3.05 0,-1.204 -0.335,-2.154 -1.005,-2.85 -0.671,-0.696 -1.555,-1.044 -2.654,-1.044 -0.684,0 -1.296,0.155 -1.839,0.465 -0.543,0.31 -0.97,0.712 -1.282,1.207 l -1.984,-0.266 1.672,-8.828 h 8.516 v 2.016 h -6.836 l -0.923,4.623 c 1.029,-0.717 2.108,-1.076 3.239,-1.076 1.497,0 2.76,0.52 3.789,1.559 1.029,1.04 1.543,2.376 1.543,4.009 0,1.555 -0.453,2.899 -1.357,4.033 -1.1,1.391 -2.602,2.086 -4.505,2.086 -1.561,0 -2.834,-0.438 -3.821,-1.313 -0.987,-0.875 -1.553,-2.037 -1.693,-3.484 z"
           inkscape:connector-curvature="0" />
      </g>
      <g
         id="g4428"
         transform="translate(20,-323.96197)">
        <path
           id="path4430"
           d="m 284.224,559.986 -2.094,0.172 c -0.188,-0.832 -0.453,-1.436 -0.797,-1.813 -0.57,-0.604 -1.273,-0.906 -2.109,-0.906 -0.672,0 -1.265,0.188 -1.777,0.563 -0.659,0.485 -1.18,1.192 -1.563,2.123 -0.383,0.931 -0.582,2.255 -0.598,3.974 0.508,-0.773 1.129,-1.348 1.864,-1.723 0.734,-0.375 1.504,-0.563 2.31,-0.563 1.406,0 2.604,0.518 3.593,1.555 0.989,1.036 1.483,2.376 1.483,4.019 0,1.08 -0.232,2.083 -0.697,3.01 -0.465,0.927 -1.104,1.637 -1.916,2.13 -0.812,0.493 -1.734,0.739 -2.766,0.739 -1.758,0 -3.191,-0.647 -4.301,-1.942 -1.109,-1.294 -1.664,-3.427 -1.664,-6.399 0,-3.324 0.613,-5.741 1.839,-7.25 1.069,-1.314 2.51,-1.971 4.321,-1.971 1.351,0 2.457,0.379 3.32,1.138 0.863,0.76 1.38,1.807 1.552,3.144 z m -8.61,7.412 c 0,0.729 0.154,1.426 0.462,2.091 0.308,0.666 0.737,1.173 1.289,1.521 0.551,0.349 1.133,0.523 1.747,0.523 0.894,0 1.66,-0.36 2.297,-1.081 0.637,-0.721 0.955,-1.7 0.955,-2.938 0,-1.19 -0.314,-2.128 -0.944,-2.813 -0.629,-0.685 -1.426,-1.028 -2.39,-1.028 -0.952,0 -1.759,0.343 -2.422,1.028 -0.663,0.686 -0.994,1.585 -0.994,2.697 z"
           inkscape:connector-curvature="0" />
      </g>
      <g
         id="g4432"
         transform="translate(20,-323.96197)">
        <path
           id="path4434"
           d="m 273.427,649.529 v -2.031 h 11.109 v 1.644 c -1.09,1.165 -2.171,2.713 -3.243,4.644 -1.071,1.931 -1.898,3.916 -2.482,5.956 -0.421,1.438 -0.689,3.014 -0.806,4.725 h -2.172 c 0.023,-1.352 0.289,-2.986 0.795,-4.901 0.506,-1.915 1.234,-3.762 2.181,-5.54 0.947,-1.778 1.955,-3.277 3.023,-4.497 h -8.405 z"
           inkscape:connector-curvature="0" />
      </g>
      <g
         id="g4436"
         transform="translate(20,-323.96197)">
        <path
           id="path4438"
           d="m 276.534,746.644 c -0.88,-0.321 -1.531,-0.778 -1.956,-1.373 -0.425,-0.595 -0.636,-1.308 -0.636,-2.137 0,-1.252 0.449,-2.305 1.347,-3.158 0.898,-0.853 2.093,-1.279 3.584,-1.279 1.499,0 2.706,0.437 3.62,1.309 0.914,0.873 1.371,1.936 1.371,3.188 0,0.798 -0.209,1.493 -0.628,2.084 -0.418,0.591 -1.054,1.046 -1.906,1.367 1.055,0.344 1.859,0.899 2.41,1.665 0.552,0.766 0.827,1.681 0.827,2.744 0,1.47 -0.52,2.705 -1.558,3.705 -1.038,1.001 -2.404,1.501 -4.099,1.501 -1.695,0 -3.061,-0.502 -4.099,-1.507 -1.039,-1.004 -1.558,-2.257 -1.558,-3.758 0,-1.118 0.284,-2.054 0.852,-2.809 0.568,-0.755 1.379,-1.269 2.429,-1.542 z m -1.107,4.361 c 0,0.603 0.141,1.185 0.422,1.748 0.281,0.563 0.704,0.999 1.267,1.308 0.563,0.309 1.167,0.463 1.813,0.463 1.009,0 1.839,-0.324 2.49,-0.974 0.651,-0.649 0.977,-1.475 0.977,-2.476 0,-1.017 -0.335,-1.857 -1.006,-2.522 -0.671,-0.665 -1.515,-0.997 -2.531,-0.997 -0.993,0 -1.813,0.329 -2.461,0.985 -0.648,0.658 -0.971,1.48 -0.971,2.465 z m 0.687,-7.942 c 0,0.814 0.259,1.48 0.778,1.998 0.519,0.517 1.197,0.775 2.035,0.775 0.814,0 1.479,-0.257 1.993,-0.77 0.515,-0.514 0.772,-1.142 0.772,-1.887 0,-0.775 -0.265,-1.428 -0.795,-1.957 -0.53,-0.529 -1.195,-0.793 -1.994,-0.793 -0.807,0 -1.473,0.259 -2,0.775 -0.526,0.52 -0.789,1.139 -0.789,1.859 z"
           inkscape:connector-curvature="0" />
      </g>
    </g>
  </g>
</svg>
