<?xml version="1.0" standalone="no"?>
<!DOCTYPE svg PUBLIC "-//W3C//DTD SVG 20010904//EN"
 "http://www.w3.org/TR/2001/REC-SVG-20010904/DTD/svg10.dtd">
<svg version="1.0" xmlns="http://www.w3.org/2000/svg"
 width="600.000000pt" height="575.000000pt" viewBox="0 0 600.000000 575.000000"
 preserveAspectRatio="xMidYMid meet">
<metadata>
Created by potrace 1.10, written by Peter Selinger 2001-2011
</metadata>
<g transform="translate(0.000000,575.000000) scale(0.100000,-0.100000)"
fill="#000000" stroke="none">
<path d="M2765 5690 c-280 -30 -504 -73 -662 -129 -111 -40 -214 -82 -243
-101 -8 -5 -46 -26 -85 -45 -232 -118 -276 -145 -455 -274 -88 -63 -408 -382
-463 -461 -21 -30 -60 -82 -88 -115 -56 -67 -158 -198 -174 -223 -6 -10 -27
-42 -47 -72 -124 -191 -255 -507 -309 -750 -11 -47 -31 -130 -44 -185 -42
-170 -58 -344 -51 -560 4 -104 11 -208 15 -230 11 -51 69 -313 85 -385 7 -30
22 -73 33 -95 12 -22 33 -75 48 -118 14 -43 44 -109 66 -147 21 -38 39 -73 39
-78 0 -12 57 -118 96 -179 19 -28 34 -54 34 -57 0 -3 16 -30 35 -60 19 -30 35
-57 35 -60 0 -21 273 -397 305 -418 5 -4 44 -40 86 -80 83 -80 221 -187 332
-259 199 -128 273 -173 344 -210 93 -49 237 -113 313 -140 30 -10 64 -24 75
-29 74 -37 370 -112 530 -135 291 -41 610 -45 791 -10 43 8 121 22 172 30 51
8 119 24 150 34 31 10 91 27 132 36 172 41 523 201 635 290 22 17 47 34 55 38
20 8 158 106 275 196 120 92 353 321 431 425 108 144 163 221 164 229 0 4 33
58 73 120 79 120 141 243 187 365 121 329 137 408 156 777 15 281 14 367 -5
601 -18 216 -118 576 -206 746 -19 36 -35 74 -35 82 0 9 -5 16 -12 16 -6 0 -8
3 -5 7 4 3 -5 27 -20 52 -15 25 -45 82 -68 126 -41 82 -115 206 -126 215 -4 3
-19 28 -34 55 -23 41 -83 125 -105 145 -3 3 -25 30 -49 60 -74 92 -251 273
-291 299 -14 9 -61 43 -104 76 -123 94 -267 193 -316 219 -25 13 -72 37 -105
54 -153 80 -325 146 -510 195 -192 51 -300 74 -395 86 -47 6 -119 16 -160 22
-98 14 -423 19 -525 9z m540 -36 c225 -24 516 -87 719 -155 139 -47 398 -174
501 -246 201 -140 295 -210 375 -279 107 -93 119 -106 215 -224 38 -47 71 -87
75 -90 30 -27 197 -273 237 -350 13 -25 43 -81 66 -125 100 -186 128 -245 122
-255 -3 -5 -23 -10 -43 -11 -20 0 -31 -3 -24 -6 18 -7 15 -19 -12 -48 -14 -15
-26 -31 -28 -37 -2 -5 -33 -11 -68 -13 -81 -5 -94 -25 -16 -25 31 0 56 -3 56
-6 0 -3 -11 -20 -24 -37 -36 -50 -42 -65 -17 -43 12 11 31 35 43 54 21 34 22
34 80 30 49 -4 61 -1 76 15 17 20 16 20 -45 13 -36 -4 -63 -3 -63 2 0 11 81
92 93 92 10 0 52 -93 79 -175 21 -66 54 -207 69 -300 5 -33 14 -85 19 -115 37
-214 41 -642 10 -900 -12 -91 -25 -178 -30 -195 -4 -16 -11 -48 -15 -70 -21
-134 -172 -485 -294 -687 -56 -91 -150 -223 -246 -343 -78 -97 -264 -287 -315
-322 -14 -9 -48 -37 -75 -62 -83 -75 -294 -231 -314 -231 -5 0 -11 -4 -13 -8
-11 -26 -358 -197 -503 -249 -194 -68 -250 -83 -505 -130 -132 -25 -168 -27
-390 -28 -245 0 -290 4 -540 46 -248 42 -489 117 -702 217 -122 58 -348 186
-423 241 -27 20 -57 41 -66 46 -71 44 -189 126 -189 133 0 10 57 32 64 24 3
-3 3 -15 0 -27 -4 -17 0 -24 18 -28 28 -8 47 8 30 25 -20 20 -14 31 13 24 33
-8 44 -1 38 24 -4 15 -11 18 -34 13 -40 -8 -39 20 2 58 26 25 30 33 24 61 -4
18 -14 41 -22 50 -14 15 -14 19 0 33 9 9 14 22 11 30 -8 19 -18 19 -34 0 -18
-21 -29 -19 -40 10 -5 14 -14 25 -20 25 -18 0 -24 -31 -11 -52 11 -17 9 -24
-14 -48 -24 -25 -26 -34 -21 -65 5 -26 16 -41 37 -53 47 -27 38 -47 -18 -42
-17 1 -23 -4 -23 -19 0 -58 -53 -21 -190 135 -62 71 -124 143 -139 159 -105
120 -318 460 -377 601 -9 21 -38 84 -64 139 -43 91 -94 235 -119 340 -5 22
-19 74 -29 115 -39 147 -49 193 -83 400 -12 71 -7 317 9 390 5 25 15 74 21
110 23 119 81 363 111 460 50 166 77 232 158 390 97 191 145 266 256 405 203
253 334 398 513 563 208 192 614 420 928 522 133 43 427 96 606 110 257 19
304 18 524 -6z m-2024 -4664 c26 -15 26 -66 -1 -80 -43 -23 -75 23 -50 71 12
22 23 24 51 9z"/>
<path d="M3046 5554 c-3 -9 -6 -17 -6 -19 0 -2 21 -7 46 -11 25 -3 42 -10 37
-14 -14 -13 -153 -23 -153 -10 0 16 -62 50 -92 50 -58 0 -103 -105 -60 -142
47 -41 121 -26 154 32 13 22 27 31 72 40 31 6 68 10 83 8 l28 -4 -37 -23 c-36
-22 -48 -44 -30 -55 4 -2 30 16 57 40 28 24 53 44 58 44 4 0 7 5 7 10 0 6 -6
10 -12 10 -7 0 -38 13 -68 30 -64 34 -76 36 -84 14z m-97 -66 c15 -25 14 -29
-8 -52 -32 -34 -83 -35 -105 -4 -21 29 -20 40 5 67 30 32 88 26 108 -11z"/>
<path d="M2875 5344 c-107 -8 -295 -37 -400 -61 -210 -48 -508 -167 -646 -258
-38 -25 -71 -45 -74 -45 -8 0 -167 -110 -235 -162 -74 -57 -295 -278 -408
-408 -103 -119 -274 -370 -292 -427 -6 -21 -22 -60 -34 -88 -50 -107 -66 -146
-66 -168 0 -13 -4 -27 -9 -33 -11 -11 -69 -172 -81 -224 -4 -19 -15 -55 -24
-80 -24 -64 -52 -181 -67 -280 -20 -129 -18 -415 4 -525 37 -190 72 -314 126
-445 17 -41 31 -78 31 -81 0 -4 25 -59 55 -123 81 -169 198 -366 285 -476 116
-148 394 -435 465 -481 22 -14 81 -53 132 -87 50 -34 133 -82 185 -106 216
-102 264 -123 288 -131 14 -4 50 -18 81 -31 95 -39 213 -67 509 -120 167 -29
636 -6 798 41 169 49 274 82 327 103 28 11 73 30 102 41 106 42 372 180 433
225 34 25 66 46 70 46 5 0 28 16 52 36 23 19 52 42 63 51 56 45 112 103 99
103 -10 0 -13 7 -8 25 8 33 -8 32 -23 -2 -9 -19 -10 -29 -2 -34 6 -3 -10 -16
-37 -29 -42 -21 -50 -22 -72 -9 -15 8 -29 28 -34 47 -11 39 -33 44 -24 5 10
-43 40 -78 69 -81 15 -2 27 -7 27 -11 0 -8 -62 -51 -175 -121 -38 -24 -81 -50
-95 -59 -53 -33 -257 -134 -305 -151 -27 -10 -77 -30 -110 -45 -92 -42 -272
-101 -379 -124 -255 -55 -602 -64 -821 -21 -400 78 -462 98 -760 245 -164 81
-376 206 -383 225 -2 6 16 10 41 10 37 0 46 4 55 25 7 14 12 43 12 65 0 21 5
42 11 46 6 3 19 23 28 43 30 66 65 108 116 142 27 19 70 50 95 70 25 19 61 43
80 53 19 10 73 44 120 76 47 33 162 111 255 174 94 64 206 142 251 174 45 31
119 84 165 116 46 33 116 83 155 113 46 34 82 53 99 53 22 0 25 3 16 14 -9 10
5 23 66 60 43 26 119 78 170 114 51 37 107 77 125 90 18 12 28 22 22 22 -13 0
-252 -159 -318 -211 -29 -23 -59 -39 -75 -39 -16 0 -55 20 -96 49 -39 28 -83
59 -100 71 -28 20 -143 93 -181 116 -17 10 -17 12 4 41 12 17 37 65 55 106 27
63 41 82 84 114 28 21 70 60 93 86 44 49 69 58 91 31 10 -12 23 -14 58 -9 67
9 91 16 91 25 0 9 -71 6 -113 -5 -34 -9 -52 5 -42 34 7 24 33 28 41 6 4 -9 19
-15 39 -15 28 0 33 3 33 26 0 25 -2 26 -47 19 -25 -3 -54 -8 -63 -11 -15 -5
-18 1 -18 36 0 33 4 42 23 50 21 8 21 9 -5 9 -16 1 -28 6 -28 12 0 8 -4 8 -13
1 -7 -6 -46 -11 -87 -12 -100 -2 -102 -2 -94 11 5 8 -3 10 -27 5 -61 -13 -267
-18 -273 -7 -4 6 4 13 18 17 26 6 27 10 39 104 6 43 67 138 99 154 19 10 22
18 20 54 -3 36 -1 42 16 42 11 0 45 -23 76 -51 37 -34 67 -52 91 -56 20 -3 41
-13 48 -22 7 -9 19 -17 27 -19 8 -2 21 -8 30 -13 12 -8 10 -9 -7 -6 -32 7 -29
2 14 -23 21 -12 62 -24 93 -27 l55 -6 -27 22 c-14 11 -40 21 -57 21 -31 0 -43
14 -18 23 6 2 -4 7 -24 11 -50 9 -99 68 -99 120 0 14 -5 28 -11 31 -16 10 -23
-3 -11 -18 9 -10 9 -16 0 -25 -8 -8 -8 -16 3 -28 13 -16 12 -17 -11 -10 -14 4
-36 10 -49 13 -13 3 -48 30 -78 59 l-55 53 4 62 c6 85 24 98 85 59 25 -16 52
-38 60 -50 21 -30 87 -60 132 -60 22 0 42 -4 45 -9 8 -13 71 -23 100 -15 27 6
36 24 12 24 -7 0 -19 7 -26 15 -17 20 2 20 63 -1 40 -14 52 -14 87 -2 22 7 39
16 37 19 -1 3 5 14 13 24 14 17 13 18 -3 12 -12 -5 -17 -3 -15 4 5 14 77 43
128 53 35 7 35 7 10 -8 -20 -12 -21 -15 -7 -16 10 0 15 -4 12 -10 -3 -5 2 -10
12 -10 15 -1 13 -4 -7 -16 -14 -8 -17 -13 -7 -10 12 4 17 2 15 -6 -3 -7 -19
-16 -37 -21 -18 -4 -31 -11 -28 -14 3 -3 22 0 42 7 46 15 59 5 15 -13 l-32
-14 26 -7 c30 -7 34 -22 8 -30 -26 -9 -24 -45 3 -38 17 5 18 3 7 -10 -10 -13
-9 -15 13 -10 37 7 30 -7 -11 -24 -37 -16 -60 -11 -34 7 11 8 -8 9 -63 6 -48
-4 -75 -2 -71 4 3 6 -5 7 -23 3 -37 -9 -42 -14 -14 -14 34 0 14 -20 -22 -21
l-32 -2 35 -6 35 -7 -28 -7 c-15 -4 -25 -12 -22 -17 3 -6 -2 -10 -12 -11 -10
0 -13 -3 -5 -6 26 -10 10 -23 -30 -24 l-43 -1 40 -9 c44 -9 95 -3 95 12 0 5 8
9 18 9 10 0 19 7 19 15 0 19 -6 19 -29 -2 -25 -22 -36 -8 -13 17 13 15 31 20
67 20 26 0 48 -4 48 -10 0 -5 -6 -10 -12 -10 -9 0 -8 -4 2 -10 11 -7 6 -10
-20 -11 -33 -1 -34 -1 -9 -9 37 -11 79 -2 72 16 -3 8 1 14 10 14 9 0 24 3 34
6 10 3 7 -1 -7 -10 -25 -16 -25 -16 14 -10 29 5 37 4 32 -5 -6 -9 0 -10 21 -5
27 6 27 6 8 -9 -20 -16 -19 -16 4 -10 17 4 22 3 17 -5 -4 -7 -2 -12 3 -12 20
0 11 -19 -16 -34 -37 -20 -20 -20 18 0 36 18 51 11 23 -11 -18 -14 -17 -15 11
-9 29 7 30 7 12 -13 -17 -20 -17 -20 10 -15 l28 5 -20 -22 -19 -22 27 6 c49
13 26 -23 -38 -59 -26 -15 -27 -16 -5 -10 14 3 40 16 59 27 l34 21 -5 -22 c-4
-15 -2 -22 9 -22 8 0 12 -4 9 -9 -3 -4 -67 -9 -141 -10 -115 -2 -185 -11 -185
-23 0 -6 259 0 279 7 34 10 15 -21 -21 -36 -17 -7 -26 -15 -19 -17 6 -2 26 7
44 20 47 36 62 44 52 28 -4 -7 -2 -16 6 -21 11 -7 12 -12 2 -28 -14 -22 -8
-31 21 -31 25 0 48 -32 40 -54 -4 -10 2 -17 20 -22 15 -3 31 -18 38 -35 7 -16
17 -29 21 -29 5 0 5 -9 2 -20 -5 -17 -2 -20 21 -20 14 0 41 8 58 18 17 11 53
31 79 46 27 15 46 30 44 33 -7 6 -64 -23 -104 -53 -50 -38 -67 -32 -93 30 -12
29 -30 63 -41 74 -10 12 -19 25 -19 30 0 4 -11 24 -25 43 l-26 34 88 6 c75 5
444 1 450 -5 2 -1 -34 -24 -79 -52 -45 -27 -87 -54 -94 -61 -7 -7 -23 -17 -36
-22 -16 -7 -18 -10 -6 -10 9 -1 68 32 132 73 l117 73 107 6 c59 4 294 9 522
13 228 3 453 10 499 14 47 4 91 5 99 2 13 -4 14 7 8 74 -13 148 -46 337 -77
443 -41 143 -52 155 -23 26 8 -38 26 -135 39 -215 37 -222 44 -260 50 -280 10
-31 44 -28 -575 -45 -96 -2 -276 -8 -399 -11 -176 -5 -222 -4 -216 5 5 9 -1 9
-21 -1 -16 -8 -51 -13 -79 -12 -27 1 -154 2 -281 3 l-232 1 -43 67 c-24 36
-53 80 -63 97 -11 17 -36 56 -56 86 -49 73 -61 111 -66 199 -2 40 -11 100 -19
131 -16 62 -20 136 -7 142 15 6 49 64 60 103 6 22 16 71 21 109 5 37 16 73 24
79 19 16 35 63 41 122 3 28 5 51 5 53 2 7 30 -1 80 -22 31 -14 88 -37 126 -52
126 -47 249 -116 323 -179 80 -69 137 -91 304 -120 48 -9 104 -22 125 -29 21
-7 72 -19 113 -25 41 -7 85 -14 98 -17 12 -2 22 0 22 6 0 5 -17 10 -38 10 -20
0 -80 11 -132 25 -52 14 -124 32 -160 41 -109 27 -193 56 -230 79 -48 31 -86
65 -82 76 1 5 -7 9 -18 9 -11 0 -20 5 -20 10 0 6 -10 10 -22 10 -12 0 -19 3
-15 6 10 11 -22 36 -38 30 -8 -3 -15 -2 -15 2 0 7 -16 14 -87 42 -35 13 -42
25 -20 33 6 3 -3 3 -20 0 -22 -4 -33 -2 -33 6 0 8 -8 10 -20 6 -11 -3 -20 -2
-20 3 0 6 -18 13 -40 17 -22 4 -38 10 -35 15 3 4 -5 6 -17 3 -23 -5 -22 -4 2
16 l25 21 -28 -10 c-36 -13 -40 -13 -31 1 4 8 -3 9 -26 4 -24 -5 -31 -4 -25 5
4 7 2 10 -6 9 -25 -5 -71 11 -66 24 2 7 17 15 33 18 28 6 28 7 4 9 -14 2 -48
2 -77 1 -49 -1 -53 0 -68 29 -15 29 -42 33 -31 4 3 -7 1 -16 -4 -19 -6 -4 -10
-12 -9 -18 0 -9 2 -9 6 1 7 17 28 15 44 -5 12 -15 12 -16 -6 -11 -13 3 -34 -5
-55 -20 -19 -13 -26 -21 -15 -17 11 4 29 10 40 13 18 5 18 4 6 -11 -9 -12 -10
-17 -2 -17 16 0 6 -36 -20 -72 -10 -15 -19 -32 -19 -37 0 -15 42 -25 50 -11 5
8 16 9 31 5 16 -5 21 -4 14 3 -5 6 -20 12 -33 14 l-22 3 18 35 c19 34 87 78
101 64 3 -4 0 -9 -6 -11 -22 -8 -14 -25 7 -18 11 4 20 2 20 -4 0 -6 -15 -11
-32 -11 -18 0 -40 -5 -48 -11 -11 -7 -1 -8 33 -3 30 4 47 3 47 -4 0 -15 -20
-20 -56 -15 -17 3 -35 0 -38 -6 -7 -11 24 -16 68 -11 11 1 16 -3 11 -9 -3 -6
-10 -9 -15 -6 -5 3 -11 1 -15 -5 -3 -5 2 -10 12 -11 12 -1 10 -3 -7 -8 -14 -5
-39 -6 -55 -3 -21 3 -35 -2 -45 -14 -14 -16 -13 -16 8 -5 18 10 22 9 22 -4 0
-15 10 -19 42 -16 25 3 31 -17 9 -30 -10 -7 -17 -18 -14 -24 2 -7 -2 -19 -9
-26 -17 -17 -21 -59 -6 -59 7 0 6 -5 -2 -15 -6 -8 -9 -19 -5 -25 4 -7 -1 -14
-12 -16 -13 -4 -19 -13 -18 -27 3 -28 -11 -54 -43 -84 -21 -20 -37 -24 -86
-24 -34 0 -72 0 -86 -1 -14 -1 -113 0 -220 1 -107 1 -273 -1 -367 -4 -146 -6
-173 -5 -173 7 0 8 4 18 8 24 17 19 87 222 80 230 -4 3 -18 -29 -58 -131 -4
-11 -17 -41 -29 -66 -11 -25 -21 -51 -21 -57 0 -12 -1187 -23 -1203 -11 -16
12 113 38 268 54 122 13 174 22 220 42 33 13 82 29 109 34 27 4 56 15 65 23
24 22 297 151 361 171 126 40 176 61 218 93 52 39 90 40 109 3 10 -22 45 -46
93 -66 8 -4 23 -11 34 -17 69 -37 138 -39 219 -7 49 20 28 26 -25 8 -92 -32
-166 -21 -127 18 16 16 2 33 -27 33 -17 0 -24 -5 -24 -20 0 -37 -28 -16 -79
58 -21 30 -22 36 -10 65 7 18 18 39 25 47 7 8 13 18 14 22 5 46 16 71 31 75
10 3 15 11 12 18 -6 18 -31 8 -38 -16 -4 -10 -12 -19 -20 -19 -7 0 -20 -6 -27
-13 -19 -18 -84 -35 -150 -39 -31 -1 -56 -5 -56 -8 1 -17 -6 -18 -39 -6 -21 7
-47 10 -57 6 -18 -6 -18 -7 4 -27 12 -12 19 -26 16 -32 -4 -7 -1 -8 8 -5 8 3
31 0 51 -6 29 -10 34 -14 24 -26 -8 -10 -8 -14 0 -14 20 0 12 -15 -15 -27 -24
-11 -54 -8 -54 6 0 4 9 13 20 21 28 20 25 30 -7 21 -16 -4 -28 -13 -28 -21 0
-7 -20 -20 -45 -28 -25 -8 -48 -20 -52 -26 -4 -6 -34 -11 -68 -11 -62 1 -69
-2 -48 -23 9 -9 9 -12 -4 -12 -8 0 -28 -12 -44 -27 -17 -15 -42 -27 -61 -28
-18 -1 -47 -9 -65 -18 -39 -18 -218 -35 -218 -20 0 6 18 31 40 56 41 47 111
86 254 143 38 15 88 42 112 60 51 39 117 74 139 74 16 0 114 97 115 113 1 24
61 82 111 107 45 23 73 30 132 32 49 2 73 7 70 14 -2 6 11 17 29 25 18 7 45
22 60 32 35 26 62 16 54 -18 -4 -14 -2 -25 4 -25 9 0 15 37 10 69 -1 8 4 12
13 8 12 -5 12 3 2 55 -16 75 -7 81 66 37 57 -34 92 -38 192 -24 33 5 47 11 43
20 -2 7 8 24 23 39 l27 26 22 -46 c33 -67 37 -48 6 25 l-27 62 21 29 c12 16
22 34 22 39 0 6 12 14 28 17 15 4 48 20 75 36 34 22 47 36 47 53 0 13 7 30 15
39 23 22 18 29 -15 23 -34 -7 -40 7 -10 23 20 11 29 60 10 60 -5 0 -10 -7 -10
-15 0 -24 -42 -17 -69 10 -27 29 -20 46 10 27 11 -7 29 -10 40 -7 23 8 25 40
3 49 -24 9 -27 8 -20 -10 5 -13 1 -15 -17 -10 -14 3 -32 -1 -43 -9 -24 -18
-51 -19 -57 -2 -3 9 -9 9 -29 -2 -29 -15 -61 -8 -92 20 -11 11 -33 19 -49 19
-25 0 -28 -2 -17 -15 10 -12 9 -15 -4 -15 -34 0 -54 18 -49 45 3 14 1 25 -4
25 -18 0 -43 -37 -43 -63 0 -30 -20 -36 -44 -12 -8 8 -19 15 -25 15 -6 0 -11
5 -11 10 0 24 -28 7 -34 -20 -3 -19 -15 -34 -31 -42 -30 -13 -40 -40 -26 -67
16 -28 14 -33 -9 -26 -12 4 -27 2 -35 -5 -10 -8 -15 -8 -20 0 -4 7 2 14 14 17
11 3 18 10 15 15 -3 5 -13 7 -21 4 -8 -3 -11 -1 -8 5 4 5 1 16 -5 24 -10 12
-10 19 1 32 12 15 12 16 -3 10 -22 -8 -23 5 -3 42 19 38 65 57 65 27 0 -7 9
-16 20 -19 23 -6 24 -3 10 22 -12 23 41 77 91 91 52 15 109 13 115 -5 8 -19
24 -19 38 0 8 11 20 14 43 9 18 -4 30 -10 27 -15 -3 -5 1 -9 9 -9 7 0 23 -9
35 -20 12 -11 28 -20 37 -20 8 0 15 -5 15 -11 0 -7 -17 -10 -44 -8 l-44 4 16
-27 c17 -30 38 -39 28 -13 -3 10 1 18 12 21 9 3 27 10 39 16 25 12 54 1 32
-13 -21 -12 31 -21 66 -10 26 8 27 9 7 10 -32 1 -118 72 -100 82 15 8 193 -20
319 -50 161 -38 394 -120 509 -179 195 -99 362 -196 400 -233 8 -8 31 -26 50
-39 19 -14 42 -32 50 -40 9 -8 67 -63 131 -122 151 -141 344 -381 419 -519 16
-31 36 -61 43 -67 7 -6 24 -34 37 -62 20 -42 40 -65 40 -44 0 8 -48 90 -105
179 -28 44 -60 94 -71 112 -83 137 -166 236 -328 397 -138 135 -283 250 -406
322 -181 106 -403 211 -561 264 -130 45 -403 97 -544 104 -224 12 -275 13
-320 10z m-65 -32 c0 -12 -28 -34 -73 -57 -56 -28 -81 -67 -72 -113 4 -20 6
-59 6 -85 -2 -52 9 -74 46 -88 14 -5 23 -17 23 -29 0 -12 14 -53 30 -92 36
-83 36 -87 10 -135 -11 -21 -20 -47 -20 -58 0 -31 -100 -92 -164 -100 -115
-14 -208 -66 -251 -139 -30 -51 -66 -82 -174 -147 -40 -24 -96 -59 -125 -76
-28 -18 -73 -39 -99 -47 -27 -9 -78 -30 -115 -49 -58 -28 -73 -32 -112 -26
-91 14 -219 -25 -355 -108 -44 -27 -119 -64 -165 -83 -80 -32 -91 -34 -194
-32 -97 2 -114 0 -163 -23 -78 -35 -87 -34 -64 13 83 169 106 213 135 257 18
27 46 71 62 96 90 144 446 524 573 613 297 207 371 251 571 339 106 46 335
115 485 146 149 30 205 36 205 23z m375 -12 c3 -5 1 -10 -4 -10 -6 0 -11 5
-11 10 0 6 2 10 4 10 3 0 8 -4 11 -10z m-80 -110 c3 -5 -1 -10 -9 -10 -9 0
-16 5 -16 10 0 6 4 10 9 10 6 0 13 -4 16 -10z m-108 -6 c-3 -3 -12 -4 -19 -1
-8 3 -5 6 6 6 11 1 17 -2 13 -5z m-98 -26 c20 -7 38 -15 41 -19 3 -3 13 -9 23
-12 14 -5 20 -2 24 13 4 16 14 20 44 20 21 0 41 -4 44 -10 3 -5 2 -10 -3 -10
-5 0 -7 -11 -4 -25 3 -16 11 -25 24 -25 10 0 16 4 13 10 -3 5 9 9 30 8 19 -1
35 -4 35 -8 0 -4 8 -10 18 -13 9 -2 25 -8 35 -12 10 -4 17 -3 17 4 0 6 -7 11
-15 11 -8 0 -15 5 -15 10 0 14 2 13 67 -20 31 -16 68 -30 80 -30 38 0 26 -17
-21 -30 -47 -13 -86 -7 -86 15 0 19 -44 24 -119 14 -110 -15 -106 -13 -109
-47 -3 -26 0 -32 17 -32 11 0 23 -4 26 -10 10 -17 36 -11 67 15 31 26 62 32
73 15 3 -5 2 -10 -4 -10 -6 0 -8 -7 -5 -15 4 -10 0 -15 -12 -16 -16 -1 -17 -2
-2 -6 10 -2 15 -10 11 -19 -3 -7 -9 -11 -15 -8 -5 3 -17 3 -26 -1 -16 -6 -15
-7 2 -17 15 -8 16 -12 5 -19 -10 -6 -11 -11 -3 -16 13 -9 15 -43 2 -43 -4 0
-8 -7 -8 -15 0 -8 -5 -15 -11 -15 -5 0 -8 -4 -5 -9 3 -5 -9 -14 -27 -21 -17
-6 -44 -18 -59 -26 -14 -8 -38 -14 -53 -14 -39 0 -165 70 -165 91 0 10 4 19 8
21 5 2 12 18 15 36 5 25 3 32 -6 30 -6 -3 -13 -17 -15 -31 -2 -15 -7 -27 -12
-27 -14 0 -42 51 -36 66 3 8 3 27 0 43 -5 22 -10 27 -25 24 -13 -4 -19 0 -19
10 0 21 20 33 29 18 8 -13 41 -4 53 13 5 8 8 7 8 -1 0 -7 9 -21 21 -32 15 -14
19 -26 14 -43 -4 -15 -3 -18 3 -10 5 7 22 16 38 21 31 8 44 38 22 52 -7 5 -28
9 -45 9 -18 0 -33 5 -33 11 0 11 54 8 98 -6 13 -4 22 -3 22 3 0 15 -60 35
-102 32 -37 -1 -38 -1 -34 29 2 22 -1 31 -11 31 -8 0 -11 -4 -8 -10 3 -5 -3
-10 -15 -10 -19 0 -20 2 -6 15 8 8 22 15 30 15 9 0 16 7 16 15 0 8 6 15 13 15
8 0 7 4 -3 10 -22 14 5 13 49 -2z m359 -8 c36 0 44 -4 52 -25 8 -21 14 -24 35
-19 15 4 25 2 25 -5 0 -6 -7 -11 -15 -11 -8 0 -15 -4 -15 -10 0 -18 -22 -10
-42 16 -17 20 -28 25 -58 23 -37 -3 -70 13 -70 33 0 6 10 8 23 4 12 -3 41 -6
65 -6z m-128 -21 c0 -5 -7 -9 -15 -9 -8 0 -15 7 -15 15 0 9 6 12 15 9 8 -4 15
-10 15 -15z m-20 -109 c0 -5 -7 -10 -16 -10 -15 0 -15 -2 0 -25 14 -22 15 -25
1 -25 -8 0 -15 4 -15 9 0 5 -9 13 -21 16 -19 6 -20 8 -3 26 18 20 54 26 54 9z
m55 0 c-3 -5 -13 -10 -21 -10 -8 0 -12 5 -9 10 3 6 13 10 21 10 8 0 12 -4 9
-10z m110 -20 c22 -11 48 -17 58 -14 13 4 17 2 13 -5 -15 -23 -116 2 -116 29
0 13 0 13 45 -10z m3 -36 c12 -4 22 -10 22 -15 0 -14 -34 -10 -56 6 -21 16 -8
20 34 9z m-49 -56 c-9 -16 -14 -19 -17 -9 -2 7 2 17 9 22 20 13 21 11 8 -13z
m-404 -210 c-6 -32 -39 -77 -50 -67 -3 3 2 27 11 52 19 55 48 66 39 15z m665
-438 c0 -5 -5 -10 -11 -10 -5 0 -7 5 -4 10 3 6 8 10 11 10 2 0 4 -4 4 -10z
m-892 -12 c-5 -15 -58 -30 -58 -17 0 5 10 14 23 19 31 12 39 12 35 -2z m-68
-28 c0 -5 -9 -12 -21 -15 -12 -4 -30 -16 -40 -26 -10 -10 -23 -19 -28 -19 -16
0 -45 34 -33 38 6 2 9 9 6 17 -4 9 0 12 13 9 10 -2 32 0 48 4 31 9 55 6 55 -8z
m920 0 c12 -8 9 -10 -13 -10 -16 0 -26 4 -22 10 8 12 16 12 35 0z m-865 -9 c3
-6 -4 -15 -15 -21 -16 -8 -20 -8 -20 3 0 25 23 36 35 18z m-50 -51 c-3 -5 -11
-10 -16 -10 -6 0 -7 5 -4 10 3 6 11 10 16 10 6 0 7 -4 4 -10z m-255 -84 c-19
-5 -38 -14 -41 -19 -4 -5 -13 -7 -20 -5 -9 3 -2 11 19 22 17 9 32 13 32 9 0
-4 5 -2 12 5 6 6 16 8 22 4 6 -3 -5 -11 -24 -16z m1200 -26 c0 -5 -9 -10 -21
-10 -11 0 -17 5 -14 10 3 6 13 10 21 10 8 0 14 -4 14 -10z m-1750 -16 c0 -19
-51 -84 -66 -84 -7 0 -14 -10 -18 -23 -4 -17 -22 -30 -61 -47 -62 -26 -73 -46
-20 -36 28 6 35 4 35 -9 0 -9 9 -16 23 -16 l22 -2 -22 -4 c-13 -2 -23 -9 -23
-15 0 -6 -17 -8 -45 -5 -25 4 -43 2 -40 -2 5 -10 -64 -23 -77 -15 -5 3 0 14
12 24 l21 18 -26 26 -25 25 0 -34 c0 -19 -4 -35 -10 -35 -5 0 -10 -7 -10 -15
0 -20 -43 -29 -69 -15 -17 9 -21 8 -21 -5 0 -11 -6 -15 -18 -11 -10 4 -32 0
-48 -8 -46 -22 -74 -28 -74 -17 0 6 -8 11 -18 11 -10 0 -23 5 -29 11 -8 8 -13
6 -17 -8 -4 -11 -18 -25 -32 -31 -44 -21 -72 -12 -39 12 12 9 8 11 -22 10 -21
0 -57 -4 -80 -8 -50 -9 -58 6 -15 28 34 18 57 44 48 54 -4 4 -12 -1 -17 -10
-5 -10 -20 -18 -32 -19 -12 0 -39 -1 -59 -1 -21 -1 -38 -5 -38 -9 0 -12 -73
-30 -83 -20 -4 4 25 23 65 42 70 33 78 34 193 35 112 0 126 2 200 33 73 29
134 60 266 134 66 36 134 55 207 56 50 1 62 -2 62 -15z m300 -58 c0 -2 -7 -7
-16 -10 -8 -3 -12 -2 -9 4 6 10 25 14 25 6z m-50 -26 c0 -5 -4 -10 -9 -10 -6
0 -13 5 -16 10 -3 6 1 10 9 10 9 0 16 -4 16 -10z m-37 -17 c15 -14 -49 -35
-92 -29 -36 5 -41 4 -32 -7 18 -23 2 -26 -47 -11 -57 17 -62 17 -62 3 0 -6 7
-8 16 -5 9 4 13 2 8 -5 -4 -6 0 -15 7 -20 10 -6 7 -9 -12 -9 -14 0 -36 11 -49
25 -14 15 -18 25 -11 25 7 0 11 6 8 13 -3 9 19 12 92 11 53 0 110 3 126 7 42
10 41 10 48 2z m-253 -83 c23 -18 24 -20 5 -21 -11 -1 -24 0 -30 1 -5 1 -18 2
-28 3 -10 1 -23 9 -28 19 -8 16 -5 18 23 18 18 0 44 -9 58 -20z m-920 -135
c-13 -16 -40 -20 -40 -7 0 14 12 22 33 22 16 0 17 -3 7 -15z m81 5 c25 -14 24
-30 -2 -30 -11 0 -29 -5 -40 -11 -11 -5 -34 -9 -52 -7 l-32 4 38 17 c21 10 42
15 47 12 6 -4 10 1 10 9 0 19 5 20 31 6z m2090 -65 c-17 -20 -31 -43 -30 -53
0 -14 1 -15 7 -2 22 50 42 65 86 65 26 0 39 3 33 8 -7 5 20 6 58 4 39 -3 95
-1 125 4 35 6 56 5 58 -1 2 -6 16 -10 32 -10 20 0 29 -6 33 -22 7 -25 -8 -48
-32 -48 -9 0 -31 -13 -49 -30 -18 -16 -41 -30 -50 -30 -10 0 -25 -9 -35 -20
-13 -15 -14 -20 -3 -20 20 0 28 -27 10 -34 -47 -18 -137 1 -149 32 -9 23 2 27
38 14 41 -15 80 -16 72 -2 -3 6 -19 10 -34 10 -38 0 -40 4 -28 55 8 34 7 49
-1 57 -9 9 -12 3 -12 -27 0 -44 -23 -75 -54 -75 -12 0 -25 -9 -31 -22 -11 -26
-56 -51 -89 -50 -83 3 -109 19 -169 106 -10 14 -35 35 -56 46 l-39 19 -22 -54
c-19 -46 -21 -66 -16 -119 8 -71 -7 -122 -49 -166 -32 -34 -85 -148 -85 -184
0 -16 -12 -45 -27 -64 l-26 -35 -333 7 -333 6 -93 55 c-51 31 -138 87 -193
126 -55 38 -122 81 -148 95 -27 14 -95 55 -151 92 -115 75 -128 83 -206 125
-30 16 -59 33 -63 37 -14 13 89 59 154 69 33 6 72 19 87 30 27 19 51 19 844
23 448 1 844 6 879 9 35 3 77 7 93 7 l28 2 -31 -35z m-2044 19 c-3 -3 -12 -4
-19 -1 -8 3 -5 6 6 6 11 1 17 -2 13 -5z m189 -19 c-21 -16 -44 -19 -70 -9 -29
11 -6 24 42 24 44 -1 46 -2 28 -15z m-200 -10 c-11 -8 -29 -15 -40 -15 -12 0
-32 -3 -45 -7 -18 -4 -23 -2 -19 8 4 13 48 24 103 27 20 1 20 1 1 -13z m82 -9
c3 -12 -1 -17 -10 -14 -7 3 -15 13 -16 22 -3 12 1 17 10 14 7 -3 15 -13 16
-22z m-216 2 c-9 -9 -8 -16 5 -30 9 -10 22 -18 28 -18 7 0 28 -12 48 -27 20
-16 56 -40 79 -54 58 -34 149 -91 293 -181 119 -74 163 -101 382 -235 61 -37
106 -70 100 -73 -7 -3 -162 -3 -345 0 -315 5 -644 -2 -741 -14 l-44 -6 7 58
c6 54 17 119 31 187 3 17 17 66 30 110 26 91 48 169 65 237 12 45 17 50 65 57
5 0 4 -4 -3 -11z m183 -17 c7 -12 -12 -24 -25 -16 -11 7 -4 25 10 25 5 0 11
-4 15 -9z m-40 -31 c0 -8 -8 -16 -17 -18 -10 -2 -18 1 -18 7 0 6 -9 11 -20 11
-11 0 -20 4 -20 9 0 6 17 9 38 7 24 -1 37 -7 37 -16z m2428 -7 c-7 -2 -19 -2
-25 0 -7 3 -2 5 12 5 14 0 19 -2 13 -5z m-328 -123 c7 -11 -38 -24 -57 -17 -8
3 -4 9 12 15 32 14 38 14 45 2z m277 -162 c-17 -8 -26 -8 -34 0 -9 9 -4 12 23
11 32 0 33 -1 11 -11z m113 -7 c-14 -14 -93 -26 -80 -13 6 6 21 12 35 15 45 8
54 7 45 -2z m-1514 -371 c64 -41 124 -79 133 -85 18 -11 14 -25 -45 -151 -10
-22 -19 -44 -19 -48 0 -4 -13 -37 -30 -73 -16 -35 -30 -68 -30 -73 0 -8 -63
-179 -79 -215 -12 -26 -64 -177 -82 -235 -7 -25 -21 -61 -31 -80 -10 -19 -18
-44 -18 -55 0 -26 -46 -156 -110 -310 -5 -11 -20 -58 -35 -105 -33 -103 -59
-163 -79 -179 -9 -7 -27 -10 -48 -6 -28 5 -37 2 -63 -25 -25 -26 -28 -34 -18
-49 7 -10 9 -22 6 -25 -14 -14 -40 -4 -55 22 -9 15 -29 41 -45 58 -15 16 -45
51 -66 77 -21 26 -43 52 -50 59 -17 18 -117 157 -117 163 0 2 -26 49 -59 104
-49 83 -141 263 -141 277 0 2 -17 41 -39 86 -70 150 -98 222 -121 303 -12 44
-28 101 -36 127 -8 26 -14 58 -14 72 0 14 -6 49 -14 78 -14 54 -20 152 -17
285 l1 73 193 2 c105 2 377 3 602 3 l410 0 116 -75z m549 60 c16 -5 32 -4 37
1 6 6 57 8 114 7 l104 -3 -2 -27 c-2 -29 11 -35 37 -18 12 8 12 10 -5 11 -15
0 -16 2 -5 6 8 3 17 10 20 14 9 14 190 24 190 10 0 -6 -8 -11 -17 -11 -15 0
-16 -2 -4 -9 12 -8 8 -11 -15 -16 -45 -10 -51 -13 -26 -14 13 -1 30 -8 38 -16
13 -13 11 -15 -13 -21 -46 -10 -49 -12 -18 -14 l30 -1 -25 -14 c-16 -9 -20
-15 -10 -15 13 -1 13 -2 0 -7 -21 -9 -36 -26 -44 -51 -4 -12 -14 -22 -21 -22
-9 0 -12 -6 -9 -15 5 -13 -3 -15 -52 -11 -33 3 -48 3 -34 0 14 -3 32 -7 40
-10 28 -10 -12 -24 -70 -24 -43 -1 -51 -3 -37 -11 10 -6 32 -7 49 -4 21 5 28
4 24 -4 -4 -6 -27 -11 -52 -11 -30 0 -43 -4 -38 -11 3 -6 16 -8 28 -5 11 3 28
1 36 -4 12 -8 12 -10 -5 -10 -15 0 -16 -3 -7 -12 20 -20 14 -28 -20 -29 -31
-2 -31 -2 -5 -6 35 -5 35 -23 1 -23 -21 0 -24 -3 -15 -14 9 -10 8 -15 -4 -19
-9 -4 -12 -13 -8 -23 6 -15 1 -16 -39 -11 -35 5 -76 26 -174 93 -71 48 -132
90 -137 93 -4 4 20 56 54 115 34 59 59 109 56 112 -3 3 -32 -42 -64 -100 -32
-58 -62 -106 -68 -106 -5 0 -39 18 -74 39 -35 22 -77 45 -93 52 -15 6 -28 15
-28 20 0 5 12 32 26 60 15 27 24 52 21 55 -3 3 -15 -17 -28 -45 -23 -48 -49
-65 -64 -41 -3 5 -48 34 -100 65 -52 31 -95 60 -95 66 0 12 574 2 620 -11z
m-311 -207 c31 -20 75 -49 99 -65 24 -15 45 -28 48 -28 3 0 24 -13 47 -29 23
-16 83 -55 132 -87 50 -31 92 -59 95 -61 2 -2 -2 -8 -10 -13 -12 -8 -10 -10 7
-10 12 0 25 -4 28 -10 4 -6 -5 -10 -19 -10 -14 0 -26 -5 -26 -11 0 -6 -6 -9
-14 -6 -9 4 -19 -5 -26 -24 -7 -16 -17 -29 -23 -29 -17 0 5 -17 28 -23 15 -4
13 -5 -7 -6 -21 -1 -29 -7 -35 -28 -4 -16 -6 -34 -5 -40 2 -7 -1 -13 -7 -13
-5 0 -17 -3 -26 -6 -14 -6 -16 -2 -13 21 4 34 -12 41 -39 18 -16 -15 -20 -28
-18 -70 2 -40 -1 -53 -11 -53 -8 0 -14 -4 -14 -10 0 -5 -11 -12 -25 -16 -14
-3 -23 -9 -20 -13 2 -4 -10 -16 -28 -26 -18 -10 -35 -23 -38 -28 -11 -16 -49
3 -63 31 -15 31 -6 81 19 94 9 5 15 23 15 42 0 26 8 41 36 66 20 17 47 36 60
42 28 13 30 23 7 33 -34 15 -44 14 -38 -4 3 -12 -3 -22 -20 -31 -14 -7 -25
-19 -25 -26 0 -6 -10 -14 -21 -17 -15 -4 -20 -11 -15 -22 3 -10 -7 -44 -24
-81 l-31 -63 26 -41 c15 -24 33 -40 45 -40 10 0 22 -4 25 -10 12 -20 -55 -10
-76 11 -11 11 -23 18 -26 15 -3 -3 6 -15 21 -27 25 -20 26 -22 9 -35 -17 -13
-17 -15 1 -29 20 -15 20 -15 0 -15 -15 0 -13 -4 11 -20 29 -19 28 -24 -6 -21
-8 1 -26 -3 -40 -8 -22 -8 -22 -10 -5 -16 11 -5 21 -3 26 5 6 9 12 10 26 1 11
-6 13 -11 7 -11 -7 0 -13 -7 -13 -15 0 -20 -19 -19 -58 5 -18 11 -38 20 -45
20 -20 -1 35 -39 66 -45 15 -4 25 -11 22 -15 -6 -10 -24 -6 -62 13 -13 6 -26
7 -29 4 -6 -6 6 -12 65 -32 11 -4 11 -8 1 -20 -10 -12 -10 -15 0 -15 9 0 7 -7
-5 -20 -23 -26 -59 -25 -102 1 -35 22 -35 22 -22 1 7 -11 28 -23 46 -27 18 -3
33 -10 33 -16 0 -11 -38 -3 -89 18 -34 13 -34 13 -17 -6 9 -10 35 -21 56 -25
22 -3 40 -11 40 -16 0 -10 -52 -3 -80 10 -9 4 -22 0 -32 -11 -17 -18 -17 -19
2 -29 10 -5 28 -10 39 -10 12 0 21 -5 21 -11 0 -8 -12 -10 -35 -6 -24 4 -33 2
-29 -5 5 -7 -3 -9 -22 -5 -27 5 -28 4 -9 -10 19 -14 17 -15 -20 -9 l-40 6 28
-16 c37 -20 28 -30 -14 -15 -42 15 -49 7 -10 -10 17 -8 31 -17 31 -21 0 -11
-6 -10 -47 7 -53 22 -53 10 1 -15 25 -11 46 -23 46 -27 0 -7 -56 2 -84 13 -13
5 -17 4 -13 -4 4 -6 21 -13 37 -17 17 -4 30 -11 30 -16 0 -12 -12 -11 -46 1
-24 9 -25 9 -14 -5 7 -8 18 -15 26 -15 7 0 16 -5 20 -11 4 -8 -4 -9 -27 -4
-32 7 -33 6 -14 -9 20 -15 20 -15 -5 -16 l-25 -1 23 -12 c31 -17 18 -27 -21
-16 -40 11 -49 3 -11 -11 22 -9 25 -13 14 -20 -8 -5 -19 -6 -25 -2 -5 3 -3 -3
5 -13 14 -17 13 -18 -10 -13 -14 3 -34 9 -45 14 -18 7 -18 6 -6 -9 12 -15 11
-17 -2 -17 -9 0 -23 8 -33 17 -22 23 -73 24 -98 4 -18 -15 -19 -15 -13 9 3 14
37 108 75 210 39 102 89 239 112 305 61 173 145 402 195 535 24 63 57 153 74
200 46 124 63 160 74 160 5 0 35 -16 66 -37z m488 -279 c-3 -3 -12 -4 -19 -1
-8 3 -5 6 6 6 11 1 17 -2 13 -5z m-47 -54 c0 -5 -4 -10 -9 -10 -6 0 -13 5 -16
10 -3 6 1 10 9 10 9 0 16 -4 16 -10z m174 -71 c61 -39 129 -84 151 -99 22 -15
55 -35 73 -44 53 -27 70 -12 -219 -203 -68 -45 -147 -99 -175 -121 -29 -22
-179 -127 -335 -232 -156 -105 -321 -218 -366 -251 -45 -34 -87 -59 -94 -57
-6 2 5 22 25 47 20 24 60 78 88 121 33 50 66 86 94 104 24 15 62 48 84 73 40
46 102 156 113 203 9 36 72 107 116 129 58 31 108 90 140 169 22 56 46 91 103
152 40 43 77 79 82 79 5 1 59 -31 120 -70z m-329 -119 c3 -5 -3 -10 -14 -10
-12 0 -21 5 -21 10 0 6 6 10 14 10 8 0 18 -4 21 -10z m-15 -40 c0 -5 -4 -10
-9 -10 -6 0 -13 5 -16 10 -3 6 1 10 9 10 9 0 16 -4 16 -10z m-13 -26 c-3 -3
-12 -4 -19 -1 -8 3 -5 6 6 6 11 1 17 -2 13 -5z m-72 -64 c3 -5 -1 -10 -9 -10
-9 0 -16 5 -16 10 0 6 4 10 9 10 6 0 13 -4 16 -10z m-62 -57 c-7 -2 -19 -2
-25 0 -7 3 -2 5 12 5 14 0 19 -2 13 -5z m-38 -23 c4 -6 -6 -10 -22 -9 -25 0
-26 1 -8 9 11 5 21 9 22 9 1 1 5 -3 8 -9z m-210 -330 c19 -8 19 -9 -2 -9 -12
-1 -25 4 -28 9 -7 12 2 12 30 0z m-344 -354 c24 -22 28 -23 42 -8 21 20 30 11
21 -22 -6 -25 -34 -38 -34 -15 0 16 -35 6 -36 -11 -2 -36 -5 -40 -25 -40 -11
0 -23 -8 -26 -17 -7 -27 -109 -86 -134 -78 -17 6 -18 9 -8 22 11 13 8 15 -21
13 -50 -3 -60 -1 -60 10 0 6 18 10 39 10 41 0 71 25 71 60 0 29 91 99 130 100
8 0 27 -11 41 -24z m-201 -90 c0 -21 -14 -27 -49 -20 -34 7 -41 20 -13 27 37
10 62 7 62 -7z m185 -56 c3 -5 -1 -10 -9 -10 -9 0 -16 -5 -16 -11 0 -6 -7 -9
-15 -5 -20 7 -19 -4 2 -19 14 -11 15 -15 4 -28 -7 -9 -10 -20 -7 -26 3 -5 -3
-20 -14 -32 -18 -22 -21 -22 -30 -7 -10 16 -50 14 -50 -3 0 -5 -7 -9 -15 -9
-26 0 -16 20 13 26 27 6 59 40 48 52 -3 3 -18 0 -32 -7 -15 -6 -29 -9 -32 -6
-7 7 25 32 63 49 17 7 36 20 44 29 15 19 37 22 46 7z m-221 -55 c-7 -17 -20
-20 -28 -6 -7 10 3 21 20 21 8 0 11 -6 8 -15z m36 -25 c0 -5 -7 -10 -16 -10
-8 0 -12 5 -9 10 3 6 10 10 16 10 5 0 9 -4 9 -10z"/>
<path d="M2950 4931 c-15 -29 -13 -37 17 -50 20 -9 33 -9 55 0 30 12 31 13 22
47 -9 31 -23 28 -21 -5 2 -22 -2 -28 -18 -28 -16 0 -19 6 -17 28 4 32 -21 38
-38 8z"/>
<path d="M2930 4848 c0 -7 10 -19 21 -27 18 -10 19 -15 8 -22 -10 -6 -5 -9 18
-9 17 0 39 -3 47 -6 12 -5 15 -2 10 10 -3 9 -17 16 -29 16 -46 0 -35 19 12 22
28 2 46 7 43 13 -3 6 -9 8 -15 6 -18 -6 -60 -6 -87 2 -20 5 -28 4 -28 -5z"/>
<path d="M1366 3815 c4 -8 10 -12 15 -9 11 6 2 24 -11 24 -5 0 -7 -7 -4 -15z"/>
<path d="M3200 3647 c0 -7 -12 -18 -27 -24 l-28 -11 26 -1 c14 -1 30 4 37 11
15 15 16 38 2 38 -5 0 -10 -6 -10 -13z"/>
<path d="M2357 3607 c-14 -24 -36 -72 -48 -108 -21 -63 -36 -98 -89 -214 -15
-33 -36 -82 -46 -110 -10 -27 -29 -69 -41 -93 -26 -48 -27 -55 -13 -50 20 6
279 603 266 615 -2 2 -15 -16 -29 -40z"/>
<path d="M2792 3620 c0 -14 2 -19 5 -12 2 6 2 18 0 25 -3 6 -5 1 -5 -13z"/>
<path d="M2987 3606 c-7 -19 11 -32 24 -19 6 6 5 14 -4 22 -12 9 -16 8 -20 -3z"/>
<path d="M3161 3593 c-21 -3 -30 -8 -23 -12 16 -10 72 -2 72 10 0 5 -3 8 -7 7
-5 0 -23 -3 -42 -5z"/>
<path d="M2797 3556 c5 -32 3 -38 -8 -32 -8 4 -5 0 6 -9 11 -8 21 -12 22 -8 2
5 39 8 83 7 44 -1 77 2 74 7 -3 5 -11 9 -19 9 -7 0 -17 10 -20 21 -4 13 -10
17 -14 11 -4 -6 -27 -13 -52 -15 -41 -4 -47 -2 -62 22 l-16 26 6 -39z"/>
<path d="M3175 3558 c-11 -7 -38 -15 -60 -19 l-40 -6 46 -2 c33 -1 54 5 70 19
26 21 16 26 -16 8z"/>
<path d="M2685 2910 l-40 -7 37 -2 c20 0 40 4 43 9 3 6 5 9 3 9 -2 -1 -21 -5
-43 -9z"/>
<path d="M2645 2870 c8 -13 35 -13 55 0 11 7 5 10 -23 10 -23 0 -36 -4 -32
-10z"/>
<path d="M2637 2838 c6 -11 45 -10 62 1 10 6 1 9 -26 8 -23 -1 -39 -5 -36 -9z"/>
<path d="M2668 2803 c6 -2 18 -2 25 0 6 3 1 5 -13 5 -14 0 -19 -2 -12 -5z"/>
<path d="M2593 2643 c9 -2 25 -2 35 0 9 3 1 5 -18 5 -19 0 -27 -2 -17 -5z"/>
<path d="M2565 2610 c3 -5 14 -10 23 -10 15 0 15 2 2 10 -20 13 -33 13 -25 0z"/>
<path d="M2550 2550 c0 -6 7 -10 15 -10 8 0 15 2 15 4 0 2 -7 6 -15 10 -8 3
-15 1 -15 -4z"/>
<path d="M2203 2597 c-21 -60 -26 -82 -16 -72 12 13 38 94 32 100 -3 2 -10
-10 -16 -28z"/>
<path d="M2133 2404 c-42 -89 -78 -136 -143 -186 -73 -56 -181 -172 -222 -238
-21 -34 -48 -132 -47 -167 1 -22 4 -17 14 22 32 118 66 175 167 273 66 65 94
76 100 40 3 -20 4 -19 18 8 8 16 31 55 52 86 21 31 38 61 38 66 0 5 9 16 20
23 20 14 54 118 48 147 -2 8 -22 -25 -45 -74z"/>
<path d="M2340 2460 c-22 -6 -23 -8 -7 -15 11 -4 23 -3 30 4 15 15 7 19 -23
11z"/>
<path d="M2285 2420 c-8 -12 20 -24 35 -15 5 3 10 10 10 16 0 12 -37 12 -45
-1z"/>
<path d="M1988 1843 c-16 -4 -16 -6 -4 -19 18 -18 27 -18 20 0 -3 8 2 16 13
19 10 3 12 5 3 5 -8 0 -23 -2 -32 -5z"/>
<path d="M1666 1694 c-36 -76 -45 -111 -26 -99 6 3 10 13 10 21 0 7 14 43 31
80 17 36 29 67 26 70 -2 3 -21 -30 -41 -72z"/>
<path d="M1602 1535 c-7 -15 -11 -30 -8 -32 7 -7 28 36 24 49 -2 6 -9 -2 -16
-17z"/>
<path d="M1582 1473 c-8 -14 -9 -24 -2 -28 12 -7 24 18 18 37 -3 8 -9 5 -16
-9z"/>
<path d="M3025 5250 c-3 -5 -2 -10 4 -10 5 0 13 5 16 10 3 6 2 10 -4 10 -5 0
-13 -4 -16 -10z"/>
<path d="M2930 4678 c0 -10 5 -18 10 -18 6 0 9 -3 8 -7 -1 -5 4 -20 10 -35 11
-28 39 -37 58 -19 15 14 73 21 80 10 3 -6 29 -10 58 -9 96 3 116 1 116 -14 0
-8 6 -16 13 -19 21 -7 -46 -12 -88 -6 -39 5 -39 6 -15 17 l25 11 -26 0 c-15 1
-32 -6 -39 -14 -9 -10 -17 -12 -30 -5 -13 7 -25 3 -46 -15 -25 -22 -26 -24 -6
-18 12 3 25 9 28 14 11 19 25 8 19 -13 -7 -22 -6 -22 7 -5 10 13 24 18 48 15
29 -3 32 -5 15 -12 -62 -25 -89 -40 -78 -43 6 -2 38 7 72 21 61 26 131 34 131
16 0 -16 -61 -50 -102 -56 -40 -7 -52 -24 -17 -24 33 0 117 46 145 80 25 29
28 29 87 23 36 -3 65 -12 70 -19 4 -8 18 -14 30 -14 23 0 125 -68 126 -84 1
-5 18 -24 39 -42 20 -18 31 -33 25 -34 -27 0 -11 -18 22 -24 19 -4 35 -10 35
-15 0 -9 72 -33 78 -26 3 3 -4 7 -14 10 -35 11 -84 38 -84 47 0 15 45 8 70
-12 14 -11 35 -20 48 -20 13 0 22 -6 22 -15 0 -8 8 -15 18 -15 9 0 28 -13 42
-30 13 -16 38 -32 55 -36 16 -3 36 -11 43 -16 6 -6 12 -8 12 -4 0 17 -159 121
-253 166 -83 39 -113 59 -127 83 -41 68 -117 111 -244 138 -162 34 -244 62
-261 89 -3 5 -17 10 -30 10 -19 0 -23 -5 -21 -25 3 -25 0 -28 -61 -40 -21 -4
-33 -3 -33 4 0 6 -10 11 -22 11 -12 0 -32 12 -45 28 -18 21 -22 23 -23 10z"/>
<path d="M3030 4664 c0 -8 5 -12 10 -9 6 3 10 10 10 16 0 5 -4 9 -10 9 -5 0
-10 -7 -10 -16z"/>
<path d="M2975 4560 c3 -5 13 -10 21 -10 8 0 14 5 14 10 0 6 -9 10 -21 10 -11
0 -17 -4 -14 -10z"/>
<path d="M2706 4525 c-10 -8 -24 -16 -30 -18 -7 -3 -4 -12 8 -26 17 -19 18
-21 2 -21 -9 0 -15 -4 -12 -9 3 -5 -1 -14 -10 -21 -8 -7 -12 -20 -9 -28 3 -9
0 -19 -7 -24 -9 -5 -6 -8 10 -8 15 0 22 5 20 12 -7 20 20 40 44 33 19 -5 18
-3 -4 10 -24 14 -26 18 -16 35 7 11 17 20 23 20 5 0 3 5 -5 10 -11 7 -12 12
-3 21 8 8 24 8 63 0 92 -20 65 -4 -40 24 -8 2 -24 -2 -34 -10z"/>
<path d="M2943 4516 c11 -23 16 -24 57 -19 41 6 44 5 31 -10 -12 -15 -11 -17
6 -17 27 0 35 10 22 27 -7 7 -31 13 -55 13 -32 0 -44 4 -44 15 0 8 -6 15 -14
15 -11 0 -12 -5 -3 -24z"/>
<path d="M2870 4501 l-25 -7 23 -6 c27 -7 52 -1 52 13 0 10 -14 10 -50 0z"/>
<path d="M2949 4464 c-11 -13 -27 -15 -83 -11 -38 2 -63 1 -55 -3 8 -5 52 -10
99 -12 70 -2 85 0 85 12 1 30 -26 38 -46 14z"/>
<path d="M3266 4462 c-3 -6 1 -13 10 -16 23 -9 28 -2 10 13 -8 7 -17 8 -20 3z"/>
<path d="M3056 4448 c6 -10 42 -9 69 1 13 5 4 8 -28 8 -25 0 -44 -4 -41 -9z"/>
<path d="M3540 4430 c-6 -11 -8 -20 -6 -20 3 0 10 9 16 20 6 11 8 20 6 20 -3
0 -10 -9 -16 -20z"/>
<path d="M2956 4413 c-15 -4 -16 -7 -5 -14 11 -7 10 -9 -5 -9 -20 0 -20 0 0
-15 31 -23 49 -18 51 15 2 30 -2 33 -41 23z"/>
<path d="M2584 4385 c-10 -8 -14 -15 -8 -15 5 0 19 7 30 15 10 8 14 15 8 15
-5 0 -19 -7 -30 -15z"/>
<path d="M3570 4385 c-8 -9 -8 -15 -2 -15 12 0 26 19 19 26 -2 2 -10 -2 -17
-11z"/>
<path d="M3300 4370 c-12 -8 -11 -10 8 -10 12 0 22 5 22 10 0 13 -11 13 -30 0z"/>
<path d="M2488 4363 c-16 -2 -28 -8 -28 -13 0 -9 46 -17 78 -12 13 2 21 9 19
15 -4 13 -28 17 -69 10z"/>
<path d="M3243 4353 c9 -2 23 -2 30 0 6 3 -1 5 -18 5 -16 0 -22 -2 -12 -5z"/>
<path d="M2956 4325 c-13 -36 86 -39 189 -5 26 8 24 9 -15 4 -25 -2 -64 -7
-87 -10 -35 -5 -43 -3 -43 10 0 20 -36 21 -44 1z"/>
<path d="M3570 4266 c0 -9 50 -12 62 -5 8 6 -1 9 -24 9 -21 0 -38 -2 -38 -4z"/>
<path d="M3850 4261 c0 -5 6 -11 14 -14 8 -3 17 -19 21 -36 4 -17 11 -31 16
-31 10 0 2 43 -13 73 -9 18 -38 24 -38 8z"/>
<path d="M3091 4244 c-19 -8 -31 -17 -28 -20 3 -3 16 0 29 7 12 7 37 16 53 20
27 6 28 7 5 8 -14 0 -40 -6 -59 -15z"/>
<path d="M3298 4243 c7 -3 16 -2 19 1 4 3 -2 6 -13 5 -11 0 -14 -3 -6 -6z"/>
<path d="M2842 4232 c-7 -5 16 -12 58 -18 77 -11 81 -3 8 15 -55 13 -50 13
-66 3z"/>
<path d="M3008 4213 c-10 -2 -18 -11 -18 -19 0 -15 10 -12 50 16 13 9 13 10 0
9 -8 -1 -23 -3 -32 -6z"/>
<path d="M3268 4203 c7 -3 16 -2 19 1 4 3 -2 6 -13 5 -11 0 -14 -3 -6 -6z"/>
<path d="M3295 4169 c-22 -10 -34 -19 -27 -19 15 0 72 28 72 35 0 6 3 7 -45
-16z"/>
<path d="M4070 4175 c14 -17 88 -39 177 -54 34 -5 81 -21 105 -36 24 -14 86
-52 138 -85 146 -91 323 -151 383 -131 16 6 73 11 126 12 82 1 91 2 61 11 -21
6 -67 7 -115 3 -202 -18 -264 0 -508 152 -107 67 -170 93 -222 93 -34 0 -65 8
-97 25 -54 29 -66 31 -48 10z"/>
<path d="M2938 4153 c7 -3 16 -2 19 1 4 3 -2 6 -13 5 -11 0 -14 -3 -6 -6z"/>
<path d="M3280 4130 c-25 -11 -39 -19 -32 -19 16 -1 82 26 82 33 0 4 -1 6 -2
5 -2 -1 -23 -9 -48 -19z"/>
<path d="M2942 4105 c-1 -18 2 -23 14 -18 16 6 16 34 -1 40 -6 2 -12 -8 -13
-22z"/>
<path d="M3230 4081 c0 -5 6 -11 13 -13 17 -7 38 2 31 13 -7 12 -44 12 -44 0z"/>
<path d="M2986 4073 c-9 -9 153 -62 189 -62 36 0 135 23 161 37 18 10 18 11 2
17 -18 7 -23 6 -68 -20 -39 -23 -133 -19 -210 9 -37 14 -71 22 -74 19z"/>
<path d="M2506 4047 c13 -45 23 -54 24 -21 0 20 -6 34 -16 38 -12 5 -14 1 -8
-17z"/>
<path d="M4145 4040 c-4 -6 -21 -17 -38 -24 l-32 -14 53 -7 c29 -4 55 -12 58
-16 3 -5 11 -9 17 -9 7 0 4 5 -5 11 -10 5 -15 16 -12 24 4 8 1 15 -5 15 -6 0
-11 7 -11 15 0 17 -16 20 -25 5z"/>
<path d="M2640 4015 c0 -2 18 -14 40 -25 48 -24 151 -27 203 -5 56 23 54 37
-3 15 -66 -26 -144 -26 -195 0 -42 22 -45 22 -45 15z"/>
<path d="M3210 4000 c-18 -12 -2 -12 25 0 13 6 15 9 5 9 -8 0 -22 -4 -30 -9z"/>
<path d="M3245 3985 l-40 -13 36 -1 c24 -1 39 4 43 14 3 8 4 15 3 14 -1 0 -20
-6 -42 -14z"/>
<path d="M549 3975 c-36 -20 -42 -52 -19 -101 11 -22 20 -55 20 -73 0 -33 -1
-33 -35 -28 -27 5 -37 2 -45 -13 -7 -13 -6 -19 6 -24 9 -3 20 -4 25 0 5 3 16
1 25 -4 16 -9 15 -11 -4 -28 -32 -27 -27 -34 19 -34 35 0 40 3 34 18 -13 33
-10 37 21 35 24 -2 33 2 37 17 4 17 0 20 -29 20 -36 0 -41 10 -25 53 6 16 20
26 40 30 20 4 35 16 45 36 14 26 14 34 1 64 -19 47 -65 60 -116 32z m77 -23
c19 -12 22 -50 7 -71 -16 -23 -62 -28 -81 -9 -39 39 27 112 74 80z"/>
<path d="M2557 3983 c-19 -18 5 -139 43 -226 17 -38 26 -47 45 -47 14 0 25 5
25 10 0 6 -9 10 -20 10 -11 0 -26 12 -34 28 -22 43 -48 151 -44 188 2 34 -4
49 -15 37z"/>
<path d="M2905 3975 c-11 -8 -45 -19 -75 -24 l-55 -9 43 -1 c37 -1 122 30 122
44 0 9 -14 4 -35 -10z"/>
<path d="M3138 3963 c12 -2 30 -2 40 0 9 3 -1 5 -23 4 -22 0 -30 -2 -17 -4z"/>
<path d="M4282 3958 c9 -7 25 -19 35 -26 16 -11 14 -12 -14 -8 -24 4 -31 2
-27 -8 3 -7 23 -16 44 -19 22 -3 47 -12 55 -21 17 -17 42 -20 69 -10 27 10 18
27 -11 21 -15 -3 -36 -1 -47 3 -12 5 -30 11 -41 15 -14 4 -16 8 -7 14 8 5 -2
15 -30 30 -24 12 -36 17 -26 9z"/>
<path d="M2710 3950 c8 -5 20 -10 25 -10 6 0 3 5 -5 10 -8 5 -19 10 -25 10 -5
0 -3 -5 5 -10z"/>
<path d="M3385 3950 c-3 -6 1 -7 9 -4 18 7 21 14 7 14 -6 0 -13 -4 -16 -10z"/>
<path d="M3240 3930 c-23 -7 -23 -8 -3 -9 31 -1 19 -39 -16 -44 -14 -2 -7 -3
17 -2 50 3 55 -8 10 -23 l-33 -12 38 5 c46 5 47 -1 5 -21 l-33 -15 30 6 c39 9
58 24 46 39 -5 6 -12 28 -16 49 -4 20 -10 37 -14 36 -3 -1 -17 -5 -31 -9z"/>
<path d="M2750 3920 c0 -5 4 -10 9 -10 6 0 13 5 16 10 3 6 -1 10 -9 10 -9 0
-16 -4 -16 -10z"/>
<path d="M3000 3920 c0 -5 5 -10 10 -10 6 0 10 5 10 10 0 6 -4 10 -10 10 -5 0
-10 -4 -10 -10z"/>
<path d="M5316 3908 c-9 -10 -16 -19 -16 -21 0 -1 29 0 65 1 36 2 65 0 65 -4
0 -4 -10 -18 -22 -31 -12 -13 -19 -23 -15 -23 7 0 87 83 87 90 0 3 -33 5 -74
6 -61 1 -77 -2 -90 -18z"/>
<path d="M2743 3883 c9 -2 23 -2 30 0 6 3 -1 5 -18 5 -16 0 -22 -2 -12 -5z"/>
<path d="M3000 3880 c0 -27 120 -55 135 -31 3 6 -11 9 -34 8 -25 -1 -47 5 -59
16 -20 19 -42 22 -42 7z"/>
<path d="M5110 3881 c0 -5 8 -11 18 -14 9 -2 26 -8 37 -12 30 -12 6 9 -27 23
-16 6 -28 8 -28 3z"/>
<path d="M2955 3870 c-5 -8 -22 -10 -47 -7 -33 4 -37 3 -27 -9 15 -19 63 -18
79 1 7 9 10 18 7 21 -3 3 -8 0 -12 -6z"/>
<path d="M2723 3853 c24 -6 21 -21 -5 -26 -21 -4 -20 -4 3 -6 16 0 29 5 33 15
9 23 8 24 -21 23 -17 -1 -21 -3 -10 -6z"/>
<path d="M4977 3841 c-17 -6 -16 -8 7 -21 14 -7 26 -17 26 -21 0 -5 7 -6 16
-2 15 5 15 7 0 15 -9 5 -16 16 -16 23 0 16 -6 17 -33 6z"/>
<path d="M5200 3840 c8 -5 20 -10 25 -10 6 0 3 5 -5 10 -8 5 -19 10 -25 10 -5
0 -3 -5 5 -10z"/>
<path d="M3560 3830 c0 -5 5 -10 11 -10 5 0 7 5 4 10 -3 6 -8 10 -11 10 -2 0
-4 -4 -4 -10z"/>
<path d="M4508 3833 c6 -2 18 -2 25 0 6 3 1 5 -13 5 -14 0 -19 -2 -12 -5z"/>
<path d="M5072 3828 c3 -7 17 -14 32 -16 39 -5 26 -27 -17 -28 -19 -1 -43 -8
-52 -18 -9 -9 -21 -16 -26 -16 -5 0 -19 -9 -31 -20 -12 -11 -31 -20 -42 -20
-17 0 -15 4 12 20 32 19 43 40 21 40 -6 0 -9 6 -6 13 4 10 -2 13 -19 9 -13 -2
-24 -8 -24 -12 0 -11 -36 -19 -48 -11 -6 4 -15 18 -21 31 -7 18 -10 20 -10 8
-1 -13 -9 -18 -28 -18 -21 0 -24 -3 -15 -12 19 -19 14 -28 -16 -28 -15 0 -34
-6 -40 -12 -10 -10 -138 -15 -525 -20 -464 -6 -824 -14 -837 -19 -24 -9 180
-13 412 -8 156 4 425 10 598 14 173 3 337 7 363 9 26 1 50 -1 53 -6 12 -19
145 -50 187 -44 31 5 53 2 81 -12 l38 -19 -118 -84 c-66 -46 -175 -124 -244
-174 -69 -51 -168 -121 -220 -157 -158 -108 -214 -147 -245 -174 -37 -32 -19
-23 60 30 33 22 107 71 165 109 103 68 194 133 375 268 182 135 317 229 329
229 7 0 21 9 31 20 16 18 16 20 2 20 -10 0 -17 -5 -17 -11 0 -8 -14 -10 -42
-5 -39 5 -41 5 -24 -9 18 -14 18 -15 -8 -25 -40 -15 -76 -12 -83 6 -5 13 -17
14 -77 9 -53 -5 -76 -3 -90 7 -16 13 -15 14 18 10 22 -3 45 2 60 11 17 11 42
15 90 12 61 -3 65 -2 42 10 -14 7 -35 11 -47 8 -16 -4 -20 -2 -17 8 7 23 53
22 118 -2 46 -17 64 -19 72 -11 9 9 7 12 -10 12 -31 0 -92 26 -92 39 0 16 29
13 86 -5 60 -21 60 -20 44 -39 -10 -13 -9 -15 9 -15 24 0 24 0 11 34 -7 19
-17 26 -35 26 -14 0 -25 4 -25 9 0 10 -74 26 -107 23 -12 -2 -24 2 -28 8 -9
14 -27 12 -23 -2z m-147 -88 c-3 -5 -17 -10 -31 -10 -13 0 -24 5 -24 10 0 6
14 10 31 10 17 0 28 -4 24 -10z"/>
<path d="M2845 3820 c-3 -5 -2 -10 4 -10 5 0 13 5 16 10 3 6 2 10 -4 10 -5 0
-13 -4 -16 -10z"/>
<path d="M2994 3807 c-3 -13 -1 -39 4 -58 10 -32 10 -31 11 24 1 60 -5 73 -15
34z"/>
<path d="M3132 3821 c-10 -6 -8 -10 9 -14 26 -7 34 -3 24 12 -7 13 -15 14 -33
2z"/>
<path d="M4668 3823 c6 -2 18 -2 25 0 6 3 1 5 -13 5 -14 0 -19 -2 -12 -5z"/>
<path d="M3296 3804 c-5 -14 -4 -15 9 -4 17 14 19 20 6 20 -5 0 -12 -7 -15
-16z"/>
<path d="M2700 3800 l-25 -8 28 -1 c15 -1 27 4 27 9 0 6 -1 10 -2 9 -2 -1 -14
-5 -28 -9z"/>
<path d="M3155 3780 c-18 -8 -17 -9 8 -9 16 -1 26 3 22 9 -3 6 -7 10 -8 9 -1
0 -11 -4 -22 -9z"/>
<path d="M3316 3781 c-3 -5 1 -11 9 -14 9 -4 12 -1 8 9 -6 16 -10 17 -17 5z"/>
<path d="M4705 3780 c-3 -5 -1 -10 4 -10 6 0 11 5 11 10 0 6 -2 10 -4 10 -3 0
-8 -4 -11 -10z"/>
<path d="M2683 3763 c9 -2 23 -2 30 0 6 3 -1 5 -18 5 -16 0 -22 -2 -12 -5z"/>
<path d="M2786 3741 c-4 -7 -5 -15 -2 -18 9 -9 19 4 14 18 -4 11 -6 11 -12 0z"/>
<path d="M3118 3743 c6 -2 18 -2 25 0 6 3 1 5 -13 5 -14 0 -19 -2 -12 -5z"/>
<path d="M3192 3741 c-11 -6 -9 -9 6 -13 15 -4 19 -2 15 8 -6 16 -4 16 -21 5z"/>
<path d="M3138 3723 c7 -3 16 -2 19 1 4 3 -2 6 -13 5 -11 0 -14 -3 -6 -6z"/>
<path d="M3634 3605 c4 -16 21 -66 38 -110 16 -44 39 -109 50 -145 11 -36 23
-69 28 -75 4 -5 12 -23 17 -40 21 -61 75 -186 80 -182 5 6 -45 155 -62 182 -7
11 -16 34 -19 50 -4 17 -15 53 -26 80 -10 28 -35 95 -56 150 -37 101 -63 148
-50 90z"/>
<path d="M3205 3445 c-16 -8 -23 -14 -15 -14 8 0 26 6 40 14 32 18 15 18 -25
0z"/>
<path d="M2800 3429 c0 -5 5 -7 10 -4 6 3 10 8 10 11 0 2 -4 4 -10 4 -5 0 -10
-5 -10 -11z"/>
<path d="M3148 3423 c7 -3 16 -2 19 1 4 3 -2 6 -13 5 -11 0 -14 -3 -6 -6z"/>
<path d="M3211 3416 c-20 -11 -21 -14 -7 -19 10 -4 14 -12 10 -19 -5 -8 -2 -9
10 -5 10 4 20 7 22 7 2 0 4 11 4 25 0 28 -5 30 -39 11z"/>
<path d="M3110 3350 c0 -5 9 -10 20 -10 11 0 20 5 20 10 0 6 -9 10 -20 10 -11
0 -20 -4 -20 -10z"/>
<path d="M3168 3353 c7 -3 16 -2 19 1 4 3 -2 6 -13 5 -11 0 -14 -3 -6 -6z"/>
<path d="M3218 3343 c7 -3 16 -2 19 1 4 3 -2 6 -13 5 -11 0 -14 -3 -6 -6z"/>
<path d="M2640 3322 c0 -4 20 -28 45 -52 27 -27 45 -53 45 -67 0 -16 6 -23 19
-23 11 0 23 5 26 10 8 12 16 12 34 1 12 -8 11 -12 -4 -28 -18 -17 -18 -18 9
-21 15 -2 30 -1 34 2 12 12 -22 56 -57 73 -50 25 -101 65 -101 78 0 7 -11 17
-25 23 -14 6 -25 8 -25 4z"/>
<path d="M2989 3318 c-1 -2 -2 -15 -3 -30 -2 -31 6 -35 24 -13 7 8 19 15 27
15 26 0 8 25 -20 28 -15 2 -28 2 -28 0z"/>
<path d="M2978 3243 c7 -3 16 -2 19 1 4 3 -2 6 -13 5 -11 0 -14 -3 -6 -6z"/>
<path d="M2985 3220 c3 -5 13 -10 21 -10 8 0 12 5 9 10 -3 6 -13 10 -21 10 -8
0 -12 -4 -9 -10z"/>
<path d="M3208 3203 c7 -3 16 -2 19 1 4 3 -2 6 -13 5 -11 0 -14 -3 -6 -6z"/>
<path d="M3177 3173 c3 -8 -3 -13 -17 -13 -11 0 -18 -4 -15 -10 3 -5 -3 -10
-14 -10 -38 0 -52 -10 -40 -31 10 -19 13 -18 58 18 27 21 57 43 67 50 17 10
15 11 -12 10 -21 -1 -30 -6 -27 -14z"/>
<path d="M2709 3165 c18 -14 20 -19 10 -26 -10 -6 -8 -9 8 -9 16 0 20 5 16 20
-3 11 -9 20 -13 20 -5 0 -17 3 -27 6 -13 5 -11 1 6 -11z"/>
<path d="M3154 3105 c-50 -35 -71 -44 -58 -24 4 7 0 9 -14 5 -14 -5 -24 -1
-30 10 -7 12 -17 15 -41 10 -17 -3 -45 -9 -62 -12 -23 -5 -38 -1 -61 16 -18
13 -36 19 -46 15 -15 -6 -15 -8 3 -15 20 -9 20 -9 0 -10 -17 -2 -16 -3 5 -10
18 -5 21 -9 10 -13 -41 -15 -42 -17 -6 -11 35 5 38 4 27 -10 -8 -9 -10 -16 -5
-17 5 -1 -2 -5 -16 -9 -24 -8 -24 -8 7 -9 46 -1 66 8 52 25 -9 11 -8 14 7 14
16 0 17 2 4 10 -21 14 3 13 34 -1 19 -9 29 -9 39 0 16 13 67 -1 67 -19 0 -5
12 -10 26 -10 14 0 22 4 19 10 -5 8 60 63 88 73 7 2 9 7 6 11 -3 3 -28 -10
-55 -29z"/>
<path d="M3410 3120 c-19 -11 -31 -19 -27 -20 11 0 67 29 67 35 0 7 -1 7 -40
-15z"/>
<path d="M2690 3110 c8 -5 24 -10 35 -10 17 0 17 2 5 10 -8 5 -24 10 -35 10
-17 0 -17 -2 -5 -10z"/>
<path d="M3435 3090 c-13 -6 -15 -9 -5 -9 8 0 22 4 30 9 18 12 2 12 -25 0z"/>
<path d="M2690 3078 c0 -12 48 -10 55 2 3 5 -7 8 -25 7 -16 -1 -30 -5 -30 -9z"/>
<path d="M3258 3044 c-16 -8 -28 -17 -28 -20 0 -2 12 2 28 9 15 8 34 17 42 20
13 5 13 5 0 6 -8 0 -27 -7 -42 -15z"/>
<path d="M2703 3043 c9 -2 25 -2 35 0 9 3 1 5 -18 5 -19 0 -27 -2 -17 -5z"/>
<path d="M3100 3020 c0 -5 -8 -10 -18 -10 -10 0 -22 -3 -26 -7 -3 -4 -21 -7
-38 -7 -17 -1 -33 -6 -35 -13 -3 -8 6 -10 31 -6 34 5 36 4 36 -21 0 -23 3 -26
25 -20 15 4 25 2 25 -5 0 -6 -5 -11 -12 -11 -6 0 -3 -7 8 -15 10 -8 15 -15 9
-15 -5 -1 -2 -5 9 -9 10 -4 29 -26 41 -49 41 -77 119 -175 212 -269 50 -51 96
-93 102 -93 13 0 70 -56 106 -105 16 -22 52 -65 80 -95 28 -30 64 -74 80 -97
28 -44 39 -51 50 -33 3 6 2 10 -3 10 -6 0 -12 7 -16 15 -7 19 18 20 37 1 8 -9
24 -12 36 -9 25 6 28 23 5 23 -9 0 -30 8 -46 18 -23 13 -32 14 -35 5 -3 -7 -9
-13 -15 -13 -6 0 -3 9 6 19 17 18 16 19 -16 26 -41 9 -88 52 -139 128 -37 55
-38 58 -19 70 27 16 25 27 -5 27 -14 0 -25 -5 -25 -10 0 -11 -31 4 -62 29 -23
18 -23 28 3 36 11 4 18 9 15 12 -3 3 -19 0 -36 -7 -30 -13 -32 -12 -81 38 -27
27 -49 54 -49 58 0 5 -15 24 -33 44 -40 42 -61 86 -46 96 6 3 18 -1 27 -9 9
-8 31 -17 49 -20 49 -9 32 16 -20 30 -52 14 -119 70 -153 129 -14 24 -33 48
-42 53 -29 16 1 33 70 41 l63 7 -55 2 c-73 2 -100 10 -93 27 3 8 2 14 -1 14
-3 0 -6 -4 -6 -10z m-10 -44 c0 -11 -19 -15 -25 -6 -3 5 1 10 9 10 9 0 16 -2
16 -4z"/>
<path d="M5442 2965 c0 -16 2 -22 5 -12 2 9 2 23 0 30 -3 6 -5 -1 -5 -18z"/>
<path d="M2980 2949 c0 -5 5 -7 10 -4 6 3 10 8 10 11 0 2 -4 4 -10 4 -5 0 -10
-5 -10 -11z"/>
<path d="M3287 2914 c-11 -11 3 -24 24 -24 18 0 19 2 5 15 -16 17 -20 18 -29
9z"/>
<path d="M3540 2885 c-14 -8 -20 -14 -14 -15 5 0 19 7 30 15 24 18 16 19 -16
0z"/>
<path d="M3570 2864 c-17 -9 -20 -14 -9 -14 9 0 22 7 29 15 15 18 13 18 -20
-1z"/>
<path d="M3301 2841 c-11 -7 -10 -10 4 -18 12 -7 14 -12 6 -17 -15 -10 11 -36
36 -36 11 0 14 3 7 8 -16 11 -24 41 -12 48 7 4 6 9 -3 15 -17 11 -21 11 -38 0z"/>
<path d="M2968 2788 c-16 -5 -28 -14 -28 -19 0 -6 8 -6 19 1 25 13 71 13 71 0
0 -5 -11 -10 -25 -10 -14 0 -25 -3 -25 -7 0 -5 22 -8 49 -8 43 0 47 2 38 17
-10 16 -50 39 -65 37 -4 0 -19 -5 -34 -11z"/>
<path d="M3655 2740 c-16 -11 -25 -20 -19 -20 11 0 64 39 54 40 -3 0 -18 -9
-35 -20z"/>
<path d="M5443 2710 c0 -30 2 -43 4 -27 2 15 2 39 0 55 -2 15 -4 2 -4 -28z"/>
<path d="M3701 2727 c-13 -21 -12 -21 5 -5 10 10 16 20 13 22 -3 3 -11 -5 -18
-17z"/>
<path d="M3716 2684 c-28 -13 -52 -27 -55 -32 -3 -4 -36 -27 -73 -52 -38 -25
-68 -48 -68 -53 0 -8 41 11 50 23 6 9 176 120 183 120 3 0 8 -13 12 -29 3 -16
14 -31 25 -34 10 -2 28 -28 41 -56 13 -28 28 -51 34 -51 5 0 3 -5 -5 -11 -12
-8 -9 -10 13 -6 15 2 25 2 23 -1 -3 -3 4 -13 16 -24 21 -18 21 -19 2 -34 -16
-13 -16 -15 -2 -10 10 3 20 1 23 -4 4 -6 0 -10 -7 -11 -7 0 -3 -4 10 -10 13
-5 21 -13 18 -18 -3 -5 1 -14 9 -21 7 -6 11 -18 8 -27 -3 -8 0 -19 8 -24 35
-22 38 -1 10 55 -11 21 -23 52 -27 69 -3 17 -33 59 -68 96 -33 36 -72 90 -85
119 -14 28 -29 52 -35 51 -6 0 -33 -11 -60 -25z"/>
<path d="M2956 2655 c4 -8 11 -15 16 -15 6 0 5 6 -2 15 -7 8 -14 15 -16 15 -2
0 -1 -7 2 -15z"/>
<path d="M5437 2644 c-4 -4 -7 -26 -6 -48 l1 -41 9 39 c10 42 8 62 -4 50z"/>
<path d="M4040 2615 c0 -5 5 -17 10 -25 5 -8 10 -10 10 -5 0 6 -5 17 -10 25
-5 8 -10 11 -10 5z"/>
<path d="M2967 2598 c6 -11 65 -10 83 2 10 6 -1 9 -37 7 -28 -1 -49 -5 -46 -9z"/>
<path d="M3650 2548 c1 -32 16 -39 36 -17 10 13 13 19 7 15 -7 -4 -13 -2 -13
3 0 6 -7 11 -15 11 -8 0 -15 -6 -15 -12z"/>
<path d="M4070 2541 c0 -6 4 -13 10 -16 6 -3 7 1 4 9 -7 18 -14 21 -14 7z"/>
<path d="M5420 2519 c0 -11 5 -17 10 -14 6 3 10 13 10 21 0 8 -4 14 -10 14 -5
0 -10 -9 -10 -21z"/>
<path d="M4090 2488 c0 -18 59 -148 60 -132 0 10 -48 135 -56 143 -2 2 -4 -3
-4 -11z"/>
<path d="M3698 2472 c12 -11 22 -24 22 -29 0 -4 9 -14 20 -21 17 -10 20 -10
20 6 0 11 -16 27 -42 41 -38 20 -40 20 -20 3z"/>
<path d="M5410 2446 c-5 -15 -10 -37 -10 -48 0 -32 -61 -238 -82 -280 -11 -21
-18 -45 -16 -55 10 -45 78 144 108 297 20 103 20 137 0 86z"/>
<path d="M2999 2350 c-1 -16 -2 -44 -3 -61 0 -17 2 -33 7 -36 4 -2 7 25 7 61
0 66 -9 94 -11 36z"/>
<path d="M3826 2296 c21 -15 30 -14 19 3 -3 6 -14 11 -23 11 -13 0 -13 -2 4
-14z"/>
<path d="M3990 2283 c-8 -10 -15 -24 -15 -33 0 -12 -12 -15 -59 -14 -34 1 -53
-2 -45 -7 7 -4 10 -11 7 -15 -12 -12 20 -34 49 -34 15 1 39 7 53 16 l25 15
-25 -7 c-14 -4 -30 -9 -36 -11 -7 -2 -15 0 -18 5 -6 10 31 23 77 27 31 2 34
-10 10 -38 -18 -19 -17 -20 20 -13 36 7 37 6 37 -24 0 -17 4 -29 9 -26 12 8
101 -79 101 -99 0 -15 19 -56 31 -65 4 -3 8 -14 10 -25 4 -19 49 -36 49 -18
-1 19 -117 199 -152 235 -29 29 -69 85 -87 121 -17 31 -21 32 -41 10z"/>
<path d="M4195 2220 c3 -5 8 -10 11 -10 2 0 4 5 4 10 0 6 -5 10 -11 10 -5 0
-7 -4 -4 -10z"/>
<path d="M3095 2126 c17 -15 48 -38 70 -53 22 -15 75 -54 118 -85 43 -32 81
-58 85 -58 4 0 23 -13 42 -29 19 -15 67 -49 105 -74 39 -26 95 -65 125 -87 60
-45 67 -49 190 -128 47 -30 141 -91 210 -136 162 -107 230 -147 230 -137 0 8
-42 38 -240 167 -58 37 -109 72 -115 76 -5 5 -95 64 -200 133 -104 68 -217
144 -251 169 -33 25 -103 73 -155 107 -52 34 -105 72 -119 84 -14 12 -47 35
-75 50 l-50 27 30 -26z"/>
<path d="M3860 2140 c0 -5 5 -10 10 -10 6 0 10 5 10 10 0 6 -4 10 -10 10 -5 0
-10 -4 -10 -10z"/>
<path d="M3887 2123 c-12 -11 -8 -23 7 -23 8 0 16 7 20 15 5 15 -14 21 -27 8z"/>
<path d="M5282 2028 c-7 -7 -12 -16 -12 -21 0 -8 -58 -138 -79 -177 -4 -8 -27
-51 -51 -95 -23 -44 -61 -105 -85 -135 -49 -64 -69 -100 -57 -100 6 0 41 49
78 108 38 59 75 116 82 127 12 19 68 134 118 244 25 54 27 70 6 49z"/>
<path d="M4085 2020 c-3 -5 -2 -10 4 -10 5 0 13 5 16 10 3 6 2 10 -4 10 -5 0
-13 -4 -16 -10z"/>
<path d="M2999 1890 c-3 -41 -2 -81 2 -89 9 -20 15 74 8 124 -4 34 -6 28 -10
-35z"/>
<path d="M3831 1911 c-1 -24 67 -137 106 -175 21 -20 64 -51 95 -68 43 -22 74
-51 118 -106 32 -41 69 -81 82 -90 13 -8 5 5 -18 29 -62 67 -86 106 -79 129 3
11 2 20 -3 20 -5 0 -14 12 -21 27 -12 27 -13 27 -27 9 -13 -19 -15 -18 -59 5
-63 33 -129 103 -164 174 -16 33 -30 54 -30 46z"/>
<path d="M4246 1878 c-18 -25 -13 -38 15 -38 10 0 28 -9 40 -21 11 -11 23 -18
27 -15 9 10 -21 59 -40 64 -9 2 -14 10 -11 18 8 22 -14 16 -31 -8z"/>
<path d="M4148 1883 c7 -3 16 -2 19 1 4 3 -2 6 -13 5 -11 0 -14 -3 -6 -6z"/>
<path d="M4052 1868 c2 -6 10 -14 16 -16 7 -2 10 2 6 12 -7 18 -28 22 -22 4z"/>
<path d="M4325 1780 c-11 -12 -13 -20 -6 -20 7 0 9 -5 6 -10 -3 -6 1 -13 10
-16 12 -5 6 -13 -26 -32 -24 -14 -38 -27 -31 -30 6 -2 22 4 34 12 26 19 47 21
30 4 -15 -15 -15 -28 -1 -28 16 0 32 -20 54 -67 11 -24 26 -43 33 -43 20 0 14
-17 -15 -41 l-28 -22 28 7 c29 7 35 -2 15 -22 -9 -9 -9 -12 0 -12 7 0 12 5 12
10 0 6 7 10 17 10 14 0 14 -2 -3 -21 -18 -20 -18 -20 9 -14 31 8 35 -1 10 -22
-17 -13 -16 -14 5 -8 13 4 22 2 22 -4 0 -6 -5 -11 -10 -11 -6 0 -5 -8 2 -20
13 -20 53 -28 60 -11 4 11 188 20 188 8 0 -4 10 -7 23 -5 12 2 21 9 20 15 -2
7 5 16 15 21 25 13 89 14 97 2 4 -6 -4 -10 -19 -10 -18 0 -30 -9 -41 -30 -9
-17 -20 -28 -25 -25 -5 3 -11 1 -15 -5 -3 -5 1 -10 9 -10 9 0 16 -4 16 -8 0
-19 -38 -42 -68 -42 -24 0 -30 -4 -26 -15 5 -11 -1 -15 -23 -15 -29 0 -62 -34
-43 -45 5 -3 12 0 16 6 3 6 19 9 34 6 22 -5 38 4 94 55 37 33 65 62 63 64 -2
2 21 29 50 60 29 31 53 59 53 64 0 4 -16 15 -35 24 -35 17 -48 14 -95 -22 -2
-1 2 -7 10 -12 11 -7 5 -10 -20 -10 -20 0 -46 -8 -60 -17 -17 -12 -51 -18
-110 -21 -86 -4 -87 -4 -123 28 -36 31 -130 200 -125 224 5 19 -48 146 -61
146 -4 0 -16 -9 -26 -20z m593 -318 c3 -9 -2 -13 -14 -10 -9 1 -19 9 -22 16
-3 9 2 13 14 10 9 -1 19 -9 22 -16z"/>
<path d="M3000 1700 c-4 -127 -3 -241 2 -246 16 -15 23 234 9 281 -8 26 -10
21 -11 -35z"/>
<path d="M4310 1620 c-9 -6 -10 -10 -3 -10 6 0 15 5 18 10 8 12 4 12 -15 0z"/>
<path d="M4260 1451 c0 -5 5 -13 10 -16 6 -3 10 -2 10 4 0 5 -4 13 -10 16 -5
3 -10 2 -10 -4z"/>
<path d="M3006 1138 c3 -161 5 -337 4 -391 0 -67 3 -96 11 -92 6 5 10 58 9
148 -1 78 -2 234 -2 347 -1 267 -1 273 -15 277 -9 3 -11 -68 -7 -289z"/>
<path d="M4295 1410 c3 -5 11 -10 16 -10 6 0 7 5 4 10 -3 6 -11 10 -16 10 -6
0 -7 -4 -4 -10z"/>
<path d="M4330 1375 c7 -8 17 -15 22 -15 6 0 5 7 -2 15 -7 8 -17 15 -22 15 -6
0 -5 -7 2 -15z"/>
<path d="M4380 1320 c23 -32 28 -34 48 -21 11 6 7 13 -14 30 -41 32 -60 28
-34 -9z"/>
<path d="M4715 1330 c-3 -5 -1 -10 4 -10 6 0 11 5 11 10 0 6 -2 10 -4 10 -3 0
-8 -4 -11 -10z"/>
<path d="M4280 1323 c0 -4 25 -24 56 -43 31 -19 70 -47 87 -62 17 -16 34 -28
39 -28 15 0 8 19 -12 30 -11 6 -20 17 -20 25 0 9 -9 15 -23 15 -13 0 -39 12
-58 26 -45 34 -69 47 -69 37z"/>
<path d="M4506 1306 c6 -16 34 -30 42 -21 8 7 -19 35 -34 35 -7 0 -11 -6 -8
-14z"/>
<path d="M4486 1243 c5 -5 12 -12 16 -18 4 -6 8 -2 8 8 0 9 -7 17 -17 17 -9 0
-12 -3 -7 -7z"/>
<path d="M4910 1170 c-14 -4 -48 -8 -76 -9 -82 -2 -145 -13 -141 -25 2 -6 27
-11 58 -11 l54 0 1 -46 c1 -26 4 -58 8 -73 5 -21 2 -27 -19 -32 -40 -10 -29
-26 13 -19 62 11 67 14 50 28 -9 6 -18 31 -21 55 -5 45 5 58 48 57 16 0 21 -9
25 -46 7 -56 24 -79 58 -79 l25 0 -27 26 c-16 17 -26 38 -26 55 0 42 -32 70
-70 63 -23 -5 -30 -3 -30 10 0 12 10 16 39 16 22 0 43 -4 46 -10 14 -22 36
-10 32 17 -4 30 -12 34 -47 23z"/>
<path d="M3015 610 c-3 -5 -1 -10 4 -10 6 0 11 5 11 10 0 6 -2 10 -4 10 -3 0
-8 -4 -11 -10z"/>
</g>
</svg>
